<?xml version="1.0" encoding="UTF-8" standalone="no"?><!DOCTYPE svg PUBLIC "-//W3C//DTD SVG 1.1//EN" "http://www.w3.org/Graphics/SVG/1.1/DTD/svg11.dtd"><!-- Generated by graphviz version 2.40.1 (20161225.0304)
 --><!-- Title: gram.y Pages: 1 --><svg xmlns="http://www.w3.org/2000/svg" xmlns:xlink="http://www.w3.org/1999/xlink" width="4760pt" height="1029pt" viewBox="0.00 0.00 4759.76 1029.00">
<g id="graph0" class="graph" transform="scale(1 1) rotate(0) translate(4 1025)">
<title>gram.y</title>
<polygon fill="#ffffff" stroke="transparent" points="-4,4 -4,-1025 4755.7587,-1025 4755.7587,4 -4,4"/>
<!-- 0 -->
<g id="node1" class="node">
<title>0</title>
<polygon fill="none" stroke="#000000" points="3313.3356,-1020.8014 3003.4336,-1020.8014 3003.4336,-963.5986 3313.3356,-963.5986 3313.3356,-1020.8014"/>
<text text-anchor="middle" x="3158.3846" y="-1004.4" font-family="Courier,monospace" font-size="14.00" fill="#000000">State 0</text>
<text text-anchor="start" x="3011.4091" y="-971.6" font-family="Courier,monospace" font-size="14.00" fill="#000000">  0 $accept: • pipe_sequence $end</text>
</g>
<!-- 1 -->
<g id="node2" class="node">
<title>1</title>
<polygon fill="none" stroke="#000000" points="200.6539,-647.6014 .1153,-647.6014 .1153,-590.3986 200.6539,-590.3986 200.6539,-647.6014"/>
<text text-anchor="middle" x="100.3846" y="-631.2" font-family="Courier,monospace" font-size="14.00" fill="#000000">State 1</text>
<text text-anchor="start" x="8" y="-598.4" font-family="Courier,monospace" font-size="14.00" fill="#000000">  1 cmd_name: WORD •</text>
</g>
<!-- 0&#45;&gt;1 -->
<g id="edge1" class="edge">
<title>0-&gt;1</title>
<path fill="none" stroke="#000000" d="M3003.2585,-990.8916C2401.1903,-985.6691 251.0367,-965.6189 222.3846,-945.4 127.8854,-878.7149 106.4897,-729.5875 101.7132,-658.3495"/>
<polygon fill="#000000" stroke="#000000" points="105.1863,-657.7916 101.1013,-648.016 98.1986,-658.2054 105.1863,-657.7916"/>
<text text-anchor="middle" x="150.1818" y="-805.6" font-family="Courier,monospace" font-size="14.00" fill="#000000">WORD</text>
</g>
<!-- 2 -->
<g id="node3" class="node">
<title>2</title>
<polygon fill="none" stroke="#000000" points="1175.7414,-240.8014 899.0278,-240.8014 899.0278,-183.5986 1175.7414,-183.5986 1175.7414,-240.8014"/>
<text text-anchor="middle" x="1037.3846" y="-224.4" font-family="Courier,monospace" font-size="14.00" fill="#000000">State 2</text>
<text text-anchor="start" x="907.2063" y="-191.6" font-family="Courier,monospace" font-size="14.00" fill="#000000">  5 io_file: SLESS • filename</text>
</g>
<!-- 0&#45;&gt;2 -->
<g id="edge2" class="edge">
<title>0-&gt;2</title>
<path fill="none" stroke="#000000" d="M3003.3992,-989.9622C2584.6678,-983.7218 1436.7819,-965.2747 1058.3846,-945.4 875.2709,-935.7823 236.3846,-1056.7661 236.3846,-873.4 236.3846,-873.4 236.3846,-873.4 236.3846,-339.4 236.3846,-274.1043 656.9223,-236.6505 888.5715,-220.9725"/>
<polygon fill="#000000" stroke="#000000" points="889.0323,-224.4495 898.7755,-220.2877 888.5635,-217.4652 889.0323,-224.4495"/>
<text text-anchor="middle" x="257.3811" y="-614.8" font-family="Courier,monospace" font-size="14.00" fill="#000000">SLESS</text>
</g>
<!-- 3 -->
<g id="node4" class="node">
<title>3</title>
<polygon fill="none" stroke="#000000" points="1728.6399,-240.8014 1444.1293,-240.8014 1444.1293,-183.5986 1728.6399,-183.5986 1728.6399,-240.8014"/>
<text text-anchor="middle" x="1586.3846" y="-224.4" font-family="Courier,monospace" font-size="14.00" fill="#000000">State 3</text>
<text text-anchor="start" x="1452.007" y="-191.6" font-family="Courier,monospace" font-size="14.00" fill="#000000">  6 io_file: SGREAT • filename</text>
</g>
<!-- 0&#45;&gt;3 -->
<g id="edge3" class="edge">
<title>0-&gt;3</title>
<path fill="none" stroke="#000000" d="M3039.9842,-963.5847C2630.2083,-864.385 1295.2741,-539.7859 1258.3846,-512.2 1227.6189,-489.1935 1240.1763,-466.2712 1214.3846,-437.8 1187.743,-408.3906 1160.3216,-420.397 1142.3846,-385 1124.0629,-348.8439 1116.4625,-324.9608 1142.3846,-293.8 1182.7436,-245.2846 1353.8706,-252.0428 1433.8033,-240.8695"/>
<polygon fill="#000000" stroke="#000000" points="1434.6714,-244.2755 1443.9982,-239.2494 1433.5728,-237.3623 1434.6714,-244.2755"/>
<text text-anchor="middle" x="1875.5804" y="-614.8" font-family="Courier,monospace" font-size="14.00" fill="#000000">SGREAT</text>
</g>
<!-- 4 -->
<g id="node5" class="node">
<title>4</title>
<polygon fill="none" stroke="#000000" points="4401.7414,-240.8014 4125.0278,-240.8014 4125.0278,-183.5986 4401.7414,-183.5986 4401.7414,-240.8014"/>
<text text-anchor="middle" x="4263.3846" y="-224.4" font-family="Courier,monospace" font-size="14.00" fill="#000000">State 4</text>
<text text-anchor="start" x="4133.2063" y="-191.6" font-family="Courier,monospace" font-size="14.00" fill="#000000">  8 io_here: DLESS • here_end</text>
</g>
<!-- 0&#45;&gt;4 -->
<g id="edge4" class="edge">
<title>0-&gt;4</title>
<path fill="none" stroke="#000000" d="M3313.6317,-989.5631C3555.9001,-984.6821 4012.7625,-972.1937 4173.3846,-945.4 4276.5314,-928.1939 4397.3846,-977.972 4397.3846,-873.4 4397.3846,-873.4 4397.3846,-873.4 4397.3846,-339.4 4397.3846,-299.2077 4365.2816,-267.8868 4332.5021,-246.3819"/>
<polygon fill="#000000" stroke="#000000" points="4334.0477,-243.2192 4323.7206,-240.8526 4330.3179,-249.1428 4334.0477,-243.2192"/>
<text text-anchor="middle" x="4418.3811" y="-614.8" font-family="Courier,monospace" font-size="14.00" fill="#000000">DLESS</text>
</g>
<!-- 5 -->
<g id="node6" class="node">
<title>5</title>
<polygon fill="none" stroke="#000000" points="2344.6399,-240.8014 2060.1293,-240.8014 2060.1293,-183.5986 2344.6399,-183.5986 2344.6399,-240.8014"/>
<text text-anchor="middle" x="2202.3846" y="-224.4" font-family="Courier,monospace" font-size="14.00" fill="#000000">State 5</text>
<text text-anchor="start" x="2068.007" y="-191.6" font-family="Courier,monospace" font-size="14.00" fill="#000000">  7 io_file: DGREAT • filename</text>
</g>
<!-- 0&#45;&gt;5 -->
<g id="edge5" class="edge">
<title>0-&gt;5</title>
<path fill="none" stroke="#000000" d="M3160.217,-963.4378C3162.3396,-903.6679 3158.207,-765.4218 3082.3846,-691 3057.1819,-666.2628 3038.952,-682.6896 3004.993,-673 2668.4565,-576.9758 2546.1721,-620.3752 2259.3846,-419.8 2206.1681,-382.5811 2198.932,-300.2525 2199.7755,-251.1925"/>
<polygon fill="#000000" stroke="#000000" points="2203.2808,-251.0601 2200.0767,-240.9614 2196.2838,-250.8541 2203.2808,-251.0601"/>
<text text-anchor="middle" x="3030.5804" y="-614.8" font-family="Courier,monospace" font-size="14.00" fill="#000000">DGREAT</text>
</g>
<!-- 6 -->
<g id="node7" class="node">
<title>6</title>
<polygon fill="none" stroke="#000000" points="3023.0244,-512.4011 2645.7448,-512.4011 2645.7448,-437.5989 3023.0244,-437.5989 3023.0244,-512.4011"/>
<text text-anchor="middle" x="2834.3846" y="-495.6" font-family="Courier,monospace" font-size="14.00" fill="#000000">State 6</text>
<text text-anchor="start" x="2653.8147" y="-462.8" font-family="Courier,monospace" font-size="14.00" fill="#000000"> 20 simple_command: cmd_name • cmd_suffix</text>
<text text-anchor="start" x="2653.8147" y="-446" font-family="Courier,monospace" font-size="14.00" fill="#000000"> 21               | cmd_name •</text>
</g>
<!-- 0&#45;&gt;6 -->
<g id="edge6" class="edge">
<title>0-&gt;6</title>
<path fill="none" stroke="#000000" stroke-dasharray="5,2" d="M3168.007,-963.559C3185.4731,-905.7982 3215.3412,-773.8086 3155.3846,-691 3140.7953,-670.8501 3120.4224,-690.1319 3102.3846,-673 3064.9235,-637.4205 3095.8878,-601.5616 3059.3846,-565 3039.1095,-544.6925 3013.666,-528.8174 2987.2475,-516.4543"/>
<polygon fill="#000000" stroke="#000000" points="2988.4241,-513.1455 2977.8692,-512.2263 2985.5471,-519.527 2988.4241,-513.1455"/>
<text text-anchor="middle" x="3222.979" y="-750.4" font-family="Courier,monospace" font-size="14.00" fill="#000000">cmd_name</text>
</g>
<!-- 7 -->
<g id="node8" class="node">
<title>7</title>
<polygon fill="none" stroke="#000000" points="3526.0455,-240.8014 3274.7237,-240.8014 3274.7237,-183.5986 3526.0455,-183.5986 3526.0455,-240.8014"/>
<text text-anchor="middle" x="3400.3846" y="-224.4" font-family="Courier,monospace" font-size="14.00" fill="#000000">State 7</text>
<text text-anchor="start" x="3282.8042" y="-191.6" font-family="Courier,monospace" font-size="14.00" fill="#000000">  9 io_redirect: io_file •</text>
</g>
<!-- 0&#45;&gt;7 -->
<g id="edge7" class="edge">
<title>0-&gt;7</title>
<path fill="none" stroke="#000000" stroke-dasharray="5,2" d="M3313.3996,-989.931C3600.5808,-983.6494 4186.3846,-960.1982 4186.3846,-873.4 4186.3846,-873.4 4186.3846,-873.4 4186.3846,-699.4 4186.3846,-639.3337 4182.7134,-622.3431 4200.5944,-565 4208.5512,-539.4833 4222.7822,-538.1002 4229.3846,-512.2 4237.5527,-480.158 4237.0709,-469.9609 4229.3846,-437.8 4212.7055,-368.0114 4216.3817,-333.1572 4156.3846,-293.8 4128.2773,-275.3621 3887.8077,-279.3875 3854.3846,-275.8 3806.0848,-270.6157 3794.4564,-265.9893 3746.3846,-259 3677.203,-248.9415 3600.1318,-238.4474 3536.3206,-229.9517"/>
<polygon fill="#000000" stroke="#000000" points="3536.5705,-226.4542 3526.1964,-228.6057 3535.6479,-233.3932 3536.5705,-226.4542"/>
<text text-anchor="middle" x="4230.7797" y="-614.8" font-family="Courier,monospace" font-size="14.00" fill="#000000">io_file</text>
</g>
<!-- 8 -->
<g id="node9" class="node">
<title>8</title>
<polygon fill="none" stroke="#000000" points="4081.0455,-240.8014 3829.7237,-240.8014 3829.7237,-183.5986 4081.0455,-183.5986 4081.0455,-240.8014"/>
<text text-anchor="middle" x="3955.3846" y="-224.4" font-family="Courier,monospace" font-size="14.00" fill="#000000">State 8</text>
<text text-anchor="start" x="3837.8042" y="-191.6" font-family="Courier,monospace" font-size="14.00" fill="#000000"> 10 io_redirect: io_here •</text>
</g>
<!-- 0&#45;&gt;8 -->
<g id="edge8" class="edge">
<title>0-&gt;8</title>
<path fill="none" stroke="#000000" stroke-dasharray="5,2" d="M3313.5155,-988.5141C3532.7927,-982.557 3922.1907,-969.0275 4061.3846,-945.4 4162.8147,-928.1827 4281.3846,-976.281 4281.3846,-873.4 4281.3846,-873.4 4281.3846,-873.4 4281.3846,-538.6 4281.3846,-423.8584 4272.5345,-382.2009 4199.3846,-293.8 4179.2393,-269.4547 4166.7114,-270.7672 4137.3846,-259 4122.5906,-253.064 4106.8141,-247.6891 4090.969,-242.8773"/>
<polygon fill="#000000" stroke="#000000" points="4091.6848,-239.4391 4081.1025,-239.9541 4089.6963,-246.1507 4091.6848,-239.4391"/>
<text text-anchor="middle" x="4310.7797" y="-614.8" font-family="Courier,monospace" font-size="14.00" fill="#000000">io_here</text>
</g>
<!-- 9 -->
<g id="node10" class="node">
<title>9</title>
<polygon fill="none" stroke="#000000" points="670.7414,-647.6014 394.0278,-647.6014 394.0278,-590.3986 670.7414,-590.3986 670.7414,-647.6014"/>
<text text-anchor="middle" x="532.3846" y="-631.2" font-family="Courier,monospace" font-size="14.00" fill="#000000">State 9</text>
<text text-anchor="start" x="402.2063" y="-598.4" font-family="Courier,monospace" font-size="14.00" fill="#000000"> 11 cmd_prefix: io_redirect •</text>
</g>
<!-- 0&#45;&gt;9 -->
<g id="edge9" class="edge">
<title>0-&gt;9</title>
<path fill="none" stroke="#000000" stroke-dasharray="5,2" d="M3003.1713,-989.7511C2620.2155,-983.4699 1637.704,-965.8355 1310.3846,-945.4 1154.8072,-935.6868 1113.827,-943.1574 961.3846,-910.6 786.3884,-873.2257 703.1683,-912.6211 579.3846,-783.4 546.9578,-749.5488 536.6522,-694.9058 533.5155,-658.0018"/>
<polygon fill="#000000" stroke="#000000" points="536.9787,-657.3569 532.7817,-647.6288 529.9961,-657.8509 536.9787,-657.3569"/>
<text text-anchor="middle" x="662.5769" y="-805.6" font-family="Courier,monospace" font-size="14.00" fill="#000000">io_redirect</text>
</g>
<!-- 10 -->
<g id="node11" class="node">
<title>10</title>
<polygon fill="none" stroke="#000000" points="3580.9092,-673 3111.86,-673 3111.86,-565 3580.9092,-565 3580.9092,-673"/>
<text text-anchor="middle" x="3346.3846" y="-656.4" font-family="Courier,monospace" font-size="14.00" fill="#000000">State 10</text>
<text text-anchor="start" x="3119.6224" y="-623.6" font-family="Courier,monospace" font-size="14.00" fill="#000000"> 12 cmd_prefix: cmd_prefix • io_redirect</text>
<text text-anchor="start" x="3119.6224" y="-606.8" font-family="Courier,monospace" font-size="14.00" fill="#000000"> 17 simple_command: cmd_prefix • cmd_word cmd_suffix</text>
<text text-anchor="start" x="3119.6224" y="-590" font-family="Courier,monospace" font-size="14.00" fill="#000000"> 18               | cmd_prefix • cmd_word</text>
<text text-anchor="start" x="3119.6224" y="-573.2" font-family="Courier,monospace" font-size="14.00" fill="#000000"> 19               | cmd_prefix •</text>
</g>
<!-- 0&#45;&gt;10 -->
<g id="edge10" class="edge">
<title>0-&gt;10</title>
<path fill="none" stroke="#000000" stroke-dasharray="5,2" d="M3182.779,-963.513C3187.2292,-957.6948 3191.6422,-951.4885 3195.3846,-945.4 3248.5955,-858.8327 3295.1776,-750.4176 3322.0541,-682.9192"/>
<polygon fill="#000000" stroke="#000000" points="3325.4494,-683.8511 3325.8749,-673.2648 3318.9406,-681.2751 3325.4494,-683.8511"/>
<text text-anchor="middle" x="3312.3776" y="-805.6" font-family="Courier,monospace" font-size="14.00" fill="#000000">cmd_prefix</text>
</g>
<!-- 11 -->
<g id="node12" class="node">
<title>11</title>
<polygon fill="none" stroke="#000000" points="4751.6329,-902.0014 4425.1363,-902.0014 4425.1363,-844.7986 4751.6329,-844.7986 4751.6329,-902.0014"/>
<text text-anchor="middle" x="4588.3846" y="-885.6" font-family="Courier,monospace" font-size="14.00" fill="#000000">State 11</text>
<text text-anchor="start" x="4433.0105" y="-852.8" font-family="Courier,monospace" font-size="14.00" fill="#000000"> 22 pipe_sequence: simple_command •</text>
</g>
<!-- 0&#45;&gt;11 -->
<g id="edge11" class="edge">
<title>0-&gt;11</title>
<path fill="none" stroke="#000000" stroke-dasharray="5,2" d="M3313.336,-989.4288C3624.9823,-983.4152 4306.8698,-967.8771 4411.3846,-945.4 4449.6115,-937.1789 4490.1584,-921.2655 4522.7857,-906.4858"/>
<polygon fill="#000000" stroke="#000000" points="4524.5853,-909.5105 4532.2065,-902.1506 4521.659,-903.1515 4524.5853,-909.5105"/>
<text text-anchor="middle" x="4526.1748" y="-932.8" font-family="Courier,monospace" font-size="14.00" fill="#000000">simple_command</text>
</g>
<!-- 12 -->
<g id="node13" class="node">
<title>12</title>
<polygon fill="none" stroke="#000000" points="1456.7063,-910.8011 970.0629,-910.8011 970.0629,-835.9989 1456.7063,-835.9989 1456.7063,-910.8011"/>
<text text-anchor="middle" x="1213.3846" y="-894" font-family="Courier,monospace" font-size="14.00" fill="#000000">State 12</text>
<text text-anchor="start" x="978.2238" y="-861.2" font-family="Courier,monospace" font-size="14.00" fill="#000000">  0 $accept: pipe_sequence • $end</text>
<text text-anchor="start" x="978.2238" y="-844.4" font-family="Courier,monospace" font-size="14.00" fill="#000000"> 23 pipe_sequence: pipe_sequence • PIPE simple_command</text>
</g>
<!-- 0&#45;&gt;12 -->
<g id="edge12" class="edge">
<title>0-&gt;12</title>
<path fill="none" stroke="#000000" stroke-dasharray="5,2" d="M3003.1301,-989.947C2581.289,-983.5865 1440.1761,-964.6967 1361.2028,-945.4 1334.7704,-938.9414 1307.5279,-927.31 1283.7433,-915.2535"/>
<polygon fill="#000000" stroke="#000000" points="1285.2948,-912.1155 1274.8058,-910.6218 1282.074,-918.3305 1285.2948,-912.1155"/>
<text text-anchor="middle" x="1415.9755" y="-932.8" font-family="Courier,monospace" font-size="14.00" fill="#000000">pipe_sequence</text>
</g>
<!-- 1R1 -->
<g id="node14" class="node">
<title>1R1</title>
<polygon fill="#b2df8a" stroke="#000000" points="100.3846,-493 68.3973,-475 100.3846,-457 132.3719,-475 100.3846,-493"/>
<text text-anchor="middle" x="100.3846" y="-470.8" font-family="Courier,monospace" font-size="14.00" fill="#000000">R1</text>
</g>
<!-- 1&#45;&gt;1R1 -->
<g id="edge13" class="edge">
<title>1-&gt;1R1</title>
<path fill="none" stroke="#000000" d="M100.3846,-590.2055C100.3846,-565.039 100.3846,-528.6969 100.3846,-503.5909"/>
<polygon fill="#000000" stroke="#000000" points="103.8847,-503.2559 100.3846,-493.256 96.8847,-503.256 103.8847,-503.2559"/>
</g>
<!-- 13 -->
<g id="node15" class="node">
<title>13</title>
<polygon fill="none" stroke="#000000" points="1566.6539,-130.4014 1366.1153,-130.4014 1366.1153,-73.1986 1566.6539,-73.1986 1566.6539,-130.4014"/>
<text text-anchor="middle" x="1466.3846" y="-114" font-family="Courier,monospace" font-size="14.00" fill="#000000">State 13</text>
<text text-anchor="start" x="1374" y="-81.2" font-family="Courier,monospace" font-size="14.00" fill="#000000">  3 filename: WORD •</text>
</g>
<!-- 2&#45;&gt;13 -->
<g id="edge14" class="edge">
<title>2-&gt;13</title>
<path fill="none" stroke="#000000" d="M1148.6999,-183.5538C1212.4451,-167.1495 1292.1506,-146.6378 1355.7771,-130.264"/>
<polygon fill="#000000" stroke="#000000" points="1357.0336,-133.5548 1365.8458,-127.6729 1355.289,-126.7757 1357.0336,-133.5548"/>
<text text-anchor="middle" x="1295.1818" y="-152.8" font-family="Courier,monospace" font-size="14.00" fill="#000000">WORD</text>
</g>
<!-- 14 -->
<g id="node16" class="node">
<title>14</title>
<polygon fill="none" stroke="#000000" points="1175.7414,-130.4014 899.0278,-130.4014 899.0278,-73.1986 1175.7414,-73.1986 1175.7414,-130.4014"/>
<text text-anchor="middle" x="1037.3846" y="-114" font-family="Courier,monospace" font-size="14.00" fill="#000000">State 14</text>
<text text-anchor="start" x="907.2063" y="-81.2" font-family="Courier,monospace" font-size="14.00" fill="#000000">  5 io_file: SLESS filename •</text>
</g>
<!-- 2&#45;&gt;14 -->
<g id="edge15" class="edge">
<title>2-&gt;14</title>
<path fill="none" stroke="#000000" stroke-dasharray="5,2" d="M1037.3846,-183.4819C1037.3846,-170.5504 1037.3846,-155.0778 1037.3846,-141.0942"/>
<polygon fill="#000000" stroke="#000000" points="1040.8847,-140.7578 1037.3846,-130.7578 1033.8847,-140.7579 1040.8847,-140.7578"/>
<text text-anchor="middle" x="1070.979" y="-152.8" font-family="Courier,monospace" font-size="14.00" fill="#000000">filename</text>
</g>
<!-- 3&#45;&gt;13 -->
<g id="edge16" class="edge">
<title>3-&gt;13</title>
<path fill="none" stroke="#000000" d="M1555.1693,-183.4819C1540.0109,-169.5362 1521.6402,-152.6351 1505.5513,-137.8334"/>
<polygon fill="#000000" stroke="#000000" points="1507.5896,-134.9527 1497.8605,-130.7578 1502.8501,-140.1042 1507.5896,-134.9527"/>
<text text-anchor="middle" x="1551.1818" y="-152.8" font-family="Courier,monospace" font-size="14.00" fill="#000000">WORD</text>
</g>
<!-- 15 -->
<g id="node17" class="node">
<title>15</title>
<polygon fill="none" stroke="#000000" points="1869.6399,-130.4014 1585.1293,-130.4014 1585.1293,-73.1986 1869.6399,-73.1986 1869.6399,-130.4014"/>
<text text-anchor="middle" x="1727.3846" y="-114" font-family="Courier,monospace" font-size="14.00" fill="#000000">State 15</text>
<text text-anchor="start" x="1593.007" y="-81.2" font-family="Courier,monospace" font-size="14.00" fill="#000000">  6 io_file: SGREAT filename •</text>
</g>
<!-- 3&#45;&gt;15 -->
<g id="edge17" class="edge">
<title>3-&gt;15</title>
<path fill="none" stroke="#000000" stroke-dasharray="5,2" d="M1627.9782,-183.532C1636.163,-177.6602 1644.6173,-171.4291 1652.3846,-165.4 1663.7794,-156.5552 1675.8224,-146.6208 1686.8445,-137.2795"/>
<polygon fill="#000000" stroke="#000000" points="1689.3301,-139.7596 1694.666,-130.6064 1684.7868,-134.4343 1689.3301,-139.7596"/>
<text text-anchor="middle" x="1704.979" y="-152.8" font-family="Courier,monospace" font-size="14.00" fill="#000000">filename</text>
</g>
<!-- 16 -->
<g id="node18" class="node">
<title>16</title>
<polygon fill="none" stroke="#000000" points="4519.6539,-130.4014 4319.1153,-130.4014 4319.1153,-73.1986 4519.6539,-73.1986 4519.6539,-130.4014"/>
<text text-anchor="middle" x="4419.3846" y="-114" font-family="Courier,monospace" font-size="14.00" fill="#000000">State 16</text>
<text text-anchor="start" x="4327" y="-81.2" font-family="Courier,monospace" font-size="14.00" fill="#000000">  4 here_end: WORD •</text>
</g>
<!-- 4&#45;&gt;16 -->
<g id="edge18" class="edge">
<title>4-&gt;16</title>
<path fill="none" stroke="#000000" d="M4303.9645,-183.4819C4324.2875,-169.0995 4349.0523,-151.5736 4370.424,-136.4491"/>
<polygon fill="#000000" stroke="#000000" points="4372.5963,-139.1996 4378.7371,-130.5659 4368.5526,-133.4857 4372.5963,-139.1996"/>
<text text-anchor="middle" x="4368.1818" y="-152.8" font-family="Courier,monospace" font-size="14.00" fill="#000000">WORD</text>
</g>
<!-- 17 -->
<g id="node19" class="node">
<title>17</title>
<polygon fill="none" stroke="#000000" points="4300.7414,-130.4014 4024.0278,-130.4014 4024.0278,-73.1986 4300.7414,-73.1986 4300.7414,-130.4014"/>
<text text-anchor="middle" x="4162.3846" y="-114" font-family="Courier,monospace" font-size="14.00" fill="#000000">State 17</text>
<text text-anchor="start" x="4032.2063" y="-81.2" font-family="Courier,monospace" font-size="14.00" fill="#000000">  8 io_here: DLESS here_end •</text>
</g>
<!-- 4&#45;&gt;17 -->
<g id="edge19" class="edge">
<title>4-&gt;17</title>
<path fill="none" stroke="#000000" stroke-dasharray="5,2" d="M4237.1117,-183.4819C4224.4694,-169.663 4209.1723,-152.9422 4195.7197,-138.2376"/>
<polygon fill="#000000" stroke="#000000" points="4198.2092,-135.7736 4188.8768,-130.7578 4193.0445,-140.4986 4198.2092,-135.7736"/>
<text text-anchor="middle" x="4252.979" y="-152.8" font-family="Courier,monospace" font-size="14.00" fill="#000000">here_end</text>
</g>
<!-- 5&#45;&gt;13 -->
<g id="edge20" class="edge">
<title>5-&gt;13</title>
<path fill="none" stroke="#000000" d="M2060.0661,-190.2809C2039.7351,-187.6536 2019.0534,-185.2514 1999.3846,-183.4 1914.2021,-175.3821 1698.1768,-184.5574 1614.7902,-165.4 1610.5739,-164.4313 1575.9046,-149.6033 1541.1375,-134.5098"/>
<polygon fill="#000000" stroke="#000000" points="1542.4026,-131.2434 1531.8363,-130.4667 1539.6121,-137.6631 1542.4026,-131.2434"/>
<text text-anchor="middle" x="1632.1818" y="-152.8" font-family="Courier,monospace" font-size="14.00" fill="#000000">WORD</text>
</g>
<!-- 18 -->
<g id="node20" class="node">
<title>18</title>
<polygon fill="none" stroke="#000000" points="2344.6399,-130.4014 2060.1293,-130.4014 2060.1293,-73.1986 2344.6399,-73.1986 2344.6399,-130.4014"/>
<text text-anchor="middle" x="2202.3846" y="-114" font-family="Courier,monospace" font-size="14.00" fill="#000000">State 18</text>
<text text-anchor="start" x="2068.007" y="-81.2" font-family="Courier,monospace" font-size="14.00" fill="#000000">  7 io_file: DGREAT filename •</text>
</g>
<!-- 5&#45;&gt;18 -->
<g id="edge21" class="edge">
<title>5-&gt;18</title>
<path fill="none" stroke="#000000" stroke-dasharray="5,2" d="M2202.3846,-183.4819C2202.3846,-170.5504 2202.3846,-155.0778 2202.3846,-141.0942"/>
<polygon fill="#000000" stroke="#000000" points="2205.8847,-140.7578 2202.3846,-130.7578 2198.8847,-140.7579 2205.8847,-140.7578"/>
<text text-anchor="middle" x="2235.979" y="-152.8" font-family="Courier,monospace" font-size="14.00" fill="#000000">filename</text>
</g>
<!-- 6&#45;&gt;2 -->
<g id="edge23" class="edge">
<title>6-&gt;2</title>
<path fill="none" stroke="#000000" d="M2645.5111,-463.6486C2520.6059,-456.1863 2353.2318,-446.2719 2205.3846,-437.8 2198.7742,-437.4212 1259.539,-387.4597 1253.3916,-385 1195.3752,-361.7864 1195.2001,-332.8106 1146.3846,-293.8 1126.5907,-277.9819 1104.2634,-261.1045 1084.9943,-246.828"/>
<polygon fill="#000000" stroke="#000000" points="1087.063,-244.0048 1076.9396,-240.8795 1082.9044,-249.6357 1087.063,-244.0048"/>
<text text-anchor="middle" x="1275.3811" y="-335.2" font-family="Courier,monospace" font-size="14.00" fill="#000000">SLESS</text>
</g>
<!-- 6&#45;&gt;3 -->
<g id="edge24" class="edge">
<title>6-&gt;3</title>
<path fill="none" stroke="#000000" d="M2645.532,-465.7025C2507.2411,-457.2119 2332.1976,-442.4815 2263.3846,-419.8 2249.6014,-415.2569 2249.2959,-407.134 2235.3846,-403 2183.9704,-387.7213 1796.8578,-415.8665 1752.993,-385 1717.2732,-359.8649 1744.3879,-327.3185 1716.3846,-293.8 1700.3927,-274.6585 1678.7153,-258.6055 1657.6482,-245.9415"/>
<polygon fill="#000000" stroke="#000000" points="1659.3946,-242.9083 1648.9917,-240.9008 1655.8722,-248.9575 1659.3946,-242.9083"/>
<text text-anchor="middle" x="1778.5804" y="-335.2" font-family="Courier,monospace" font-size="14.00" fill="#000000">SGREAT</text>
</g>
<!-- 6&#45;&gt;4 -->
<g id="edge25" class="edge">
<title>6-&gt;4</title>
<path fill="none" stroke="#000000" d="M3023.1426,-454.3229C3086.4046,-448.0813 3157.3767,-441.8245 3222.3846,-437.8 3257.9417,-435.5987 3835.4904,-441.9599 3863.3846,-419.8 3908.7117,-383.7909 3852.7265,-331.8074 3896.3916,-293.8 3922.0465,-271.4693 4015.069,-282.6487 4048.3846,-275.8 4088.3725,-267.5797 4131.6809,-255.4204 4168.8778,-243.9291"/>
<polygon fill="#000000" stroke="#000000" points="4170.1916,-247.1857 4178.6965,-240.8678 4168.108,-240.503 4170.1916,-247.1857"/>
<text text-anchor="middle" x="3918.3811" y="-335.2" font-family="Courier,monospace" font-size="14.00" fill="#000000">DLESS</text>
</g>
<!-- 6&#45;&gt;5 -->
<g id="edge26" class="edge">
<title>6-&gt;5</title>
<path fill="none" stroke="#000000" d="M2674.83,-437.779C2615.6136,-425.1044 2547.7006,-411.9041 2485.3846,-403 2460.7332,-399.4777 2281.2318,-400.8103 2261.993,-385 2217.0335,-348.0527 2247.6796,-313.157 2226.3846,-259 2225.2517,-256.1187 2223.9978,-253.1797 2222.675,-250.2488"/>
<polygon fill="#000000" stroke="#000000" points="2225.7314,-248.5259 2218.2785,-240.9958 2219.4088,-251.5301 2225.7314,-248.5259"/>
<text text-anchor="middle" x="2287.5804" y="-335.2" font-family="Courier,monospace" font-size="14.00" fill="#000000">DGREAT</text>
</g>
<!-- 6&#45;&gt;7 -->
<g id="edge27" class="edge">
<title>6-&gt;7</title>
<path fill="none" stroke="#000000" stroke-dasharray="5,2" d="M3023.1195,-440.4451C3158.3326,-415.6051 3316.8899,-386.2649 3318.3846,-385 3363.8923,-346.49 3335.6535,-311.235 3364.3846,-259 3366.1693,-255.7553 3368.1671,-252.4945 3370.2825,-249.2866"/>
<polygon fill="#000000" stroke="#000000" points="3373.2364,-251.1696 3376.0905,-240.9665 3367.4966,-247.1628 3373.2364,-251.1696"/>
<text text-anchor="middle" x="3381.7797" y="-335.2" font-family="Courier,monospace" font-size="14.00" fill="#000000">io_file</text>
</g>
<!-- 6&#45;&gt;8 -->
<g id="edge28" class="edge">
<title>6-&gt;8</title>
<path fill="none" stroke="#000000" stroke-dasharray="5,2" d="M3022.9755,-456.4445C3270.0672,-431.9477 3674.048,-391.1801 3689.3846,-385 3750.6059,-360.3301 3745.7229,-319.3209 3806.5944,-293.8 3862.3324,-270.4314 3896.8931,-316.7063 3941.3846,-275.8 3948.4135,-269.3375 3952.3284,-260.2172 3954.419,-250.8961"/>
<polygon fill="#000000" stroke="#000000" points="3957.9074,-251.2468 3956.0325,-240.8192 3950.9954,-250.14 3957.9074,-251.2468"/>
<text text-anchor="middle" x="3836.7797" y="-335.2" font-family="Courier,monospace" font-size="14.00" fill="#000000">io_here</text>
</g>
<!-- 19 -->
<g id="node21" class="node">
<title>19</title>
<polygon fill="none" stroke="#000000" points="1521.9514,-368.0014 1304.8178,-368.0014 1304.8178,-310.7986 1521.9514,-310.7986 1521.9514,-368.0014"/>
<text text-anchor="middle" x="1413.3846" y="-351.6" font-family="Courier,monospace" font-size="14.00" fill="#000000">State 19</text>
<text text-anchor="start" x="1312.6014" y="-318.8" font-family="Courier,monospace" font-size="14.00" fill="#000000"> 15 cmd_suffix: WORD •</text>
</g>
<!-- 6&#45;&gt;19 -->
<g id="edge22" class="edge">
<title>6-&gt;19</title>
<path fill="none" stroke="#000000" d="M2645.4604,-460.0231C2515.1121,-449.4438 2337.8596,-434.572 2181.7902,-419.8 2110.4278,-413.0455 2092.8867,-408.0655 2021.3846,-403 1913.8022,-395.3785 1642.1703,-406.0102 1536.3846,-385 1520.5682,-381.8587 1504.0917,-376.9668 1488.5301,-371.5329"/>
<polygon fill="#000000" stroke="#000000" points="1489.5676,-368.1865 1478.9732,-368.0903 1487.1952,-374.7723 1489.5676,-368.1865"/>
<text text-anchor="middle" x="2199.1818" y="-407.2" font-family="Courier,monospace" font-size="14.00" fill="#000000">WORD</text>
</g>
<!-- 20 -->
<g id="node22" class="node">
<title>20</title>
<polygon fill="none" stroke="#000000" points="2088.7414,-368.0014 1812.0278,-368.0014 1812.0278,-310.7986 2088.7414,-310.7986 2088.7414,-368.0014"/>
<text text-anchor="middle" x="1950.3846" y="-351.6" font-family="Courier,monospace" font-size="14.00" fill="#000000">State 20</text>
<text text-anchor="start" x="1820.2063" y="-318.8" font-family="Courier,monospace" font-size="14.00" fill="#000000"> 13 cmd_suffix: io_redirect •</text>
</g>
<!-- 6&#45;&gt;20 -->
<g id="edge29" class="edge">
<title>6-&gt;20</title>
<path fill="none" stroke="#000000" stroke-dasharray="5,2" d="M2645.7572,-450.5372C2534.5275,-436.2813 2391.0032,-418.1792 2263.3846,-403 2191.8872,-394.496 2172.9307,-399.4031 2102.3846,-385 2083.88,-381.222 2064.3866,-376.1976 2045.7607,-370.8652"/>
<polygon fill="#000000" stroke="#000000" points="2046.6894,-367.4903 2036.1095,-368.0536 2044.7315,-374.211 2046.6894,-367.4903"/>
<text text-anchor="middle" x="2435.5769" y="-407.2" font-family="Courier,monospace" font-size="14.00" fill="#000000">io_redirect</text>
</g>
<!-- 21 -->
<g id="node23" class="node">
<title>21</title>
<polygon fill="none" stroke="#000000" points="3219.0244,-385.1002 2841.7448,-385.1002 2841.7448,-293.6998 3219.0244,-293.6998 3219.0244,-385.1002"/>
<text text-anchor="middle" x="3030.3846" y="-368.4" font-family="Courier,monospace" font-size="14.00" fill="#000000">State 21</text>
<text text-anchor="start" x="2849.8147" y="-335.6" font-family="Courier,monospace" font-size="14.00" fill="#000000"> 14 cmd_suffix: cmd_suffix • io_redirect</text>
<text text-anchor="start" x="2849.8147" y="-318.8" font-family="Courier,monospace" font-size="14.00" fill="#000000"> 16           | cmd_suffix • WORD</text>
<text text-anchor="start" x="2849.8147" y="-302" font-family="Courier,monospace" font-size="14.00" fill="#000000"> 20 simple_command: cmd_name cmd_suffix •</text>
</g>
<!-- 6&#45;&gt;21 -->
<g id="edge30" class="edge">
<title>6-&gt;21</title>
<path fill="none" stroke="#000000" stroke-dasharray="5,2" d="M2888.2017,-437.7673C2909.1957,-423.243 2933.611,-406.3515 2956.2236,-390.7073"/>
<polygon fill="#000000" stroke="#000000" points="2958.2309,-393.5746 2964.4633,-385.0068 2954.2482,-387.818 2958.2309,-393.5746"/>
<text text-anchor="middle" x="2980.3776" y="-407.2" font-family="Courier,monospace" font-size="14.00" fill="#000000">cmd_suffix</text>
</g>
<!-- 6R21 -->
<g id="node24" class="node">
<title>6R21</title>
<polygon fill="#b2df8a" stroke="#000000" points="3640.3846,-357.4 3600.0108,-339.4 3640.3846,-321.4 3680.7584,-339.4 3640.3846,-357.4"/>
<text text-anchor="middle" x="3640.3846" y="-335.2" font-family="Courier,monospace" font-size="14.00" fill="#000000">R21</text>
</g>
<!-- 6&#45;&gt;6R21 -->
<g id="edge31" class="edge">
<title>6-&gt;6R21</title>
<path fill="none" stroke="#000000" d="M3023.1473,-455.5018C3103.747,-445.7049 3187.8225,-433.1012 3225.3846,-419.8 3239.0648,-414.9557 3239.5083,-407.2501 3253.3846,-403 3324.2435,-381.2972 3517.4982,-412.3251 3586.3846,-385 3599.8845,-379.645 3612.4443,-369.4942 3622.0476,-360.127"/>
<polygon fill="#000000" stroke="#000000" points="3624.6206,-362.5013 3629.0768,-352.8892 3619.599,-357.6244 3624.6206,-362.5013"/>
</g>
<!-- 7R9 -->
<g id="node25" class="node">
<title>7R9</title>
<polygon fill="#b2df8a" stroke="#000000" points="3400.3846,-119.8 3368.3973,-101.8 3400.3846,-83.8 3432.3719,-101.8 3400.3846,-119.8"/>
<text text-anchor="middle" x="3400.3846" y="-97.6" font-family="Courier,monospace" font-size="14.00" fill="#000000">R9</text>
</g>
<!-- 7&#45;&gt;7R9 -->
<g id="edge32" class="edge">
<title>7-&gt;7R9</title>
<path fill="none" stroke="#000000" d="M3400.3846,-183.4819C3400.3846,-167.0256 3400.3846,-146.454 3400.3846,-130.0728"/>
<polygon fill="#000000" stroke="#000000" points="3403.8847,-129.9984 3400.3846,-119.9984 3396.8847,-129.9984 3403.8847,-129.9984"/>
</g>
<!-- 8R10 -->
<g id="node26" class="node">
<title>8R10</title>
<polygon fill="#b2df8a" stroke="#000000" points="3955.3846,-119.8 3915.0108,-101.8 3955.3846,-83.8 3995.7584,-101.8 3955.3846,-119.8"/>
<text text-anchor="middle" x="3955.3846" y="-97.6" font-family="Courier,monospace" font-size="14.00" fill="#000000">R10</text>
</g>
<!-- 8&#45;&gt;8R10 -->
<g id="edge33" class="edge">
<title>8-&gt;8R10</title>
<path fill="none" stroke="#000000" d="M3955.3846,-183.4819C3955.3846,-167.0256 3955.3846,-146.454 3955.3846,-130.0728"/>
<polygon fill="#000000" stroke="#000000" points="3958.8847,-129.9984 3955.3846,-119.9984 3951.8847,-129.9984 3958.8847,-129.9984"/>
</g>
<!-- 9R11 -->
<g id="node27" class="node">
<title>9R11</title>
<polygon fill="#b2df8a" stroke="#000000" points="532.3846,-493 492.0108,-475 532.3846,-457 572.7584,-475 532.3846,-493"/>
<text text-anchor="middle" x="532.3846" y="-470.8" font-family="Courier,monospace" font-size="14.00" fill="#000000">R11</text>
</g>
<!-- 9&#45;&gt;9R11 -->
<g id="edge34" class="edge">
<title>9-&gt;9R11</title>
<path fill="none" stroke="#000000" d="M532.3846,-590.2055C532.3846,-565.039 532.3846,-528.6969 532.3846,-503.5909"/>
<polygon fill="#000000" stroke="#000000" points="535.8847,-503.2559 532.3846,-493.256 528.8847,-503.256 535.8847,-503.2559"/>
</g>
<!-- 10&#45;&gt;2 -->
<g id="edge36" class="edge">
<title>10-&gt;2</title>
<path fill="none" stroke="#000000" d="M3111.5294,-571.4569C3093.9336,-568.9247 3076.4094,-566.7198 3059.3846,-565 2859.7592,-544.8346 1442.0095,-583.2904 1254.3846,-512.2 1204.5608,-493.322 1205.808,-465.6478 1160.3846,-437.8 1112.4372,-408.4048 1077.4533,-431.2021 1045.3846,-385 1018.1488,-345.7607 1021.667,-288.5802 1028.2384,-250.8971"/>
<polygon fill="#000000" stroke="#000000" points="1031.7255,-251.2937 1030.1498,-240.8167 1024.8481,-249.9895 1031.7255,-251.2937"/>
<text text-anchor="middle" x="1129.3811" y="-407.2" font-family="Courier,monospace" font-size="14.00" fill="#000000">SLESS</text>
</g>
<!-- 10&#45;&gt;3 -->
<g id="edge37" class="edge">
<title>10-&gt;3</title>
<path fill="none" stroke="#000000" d="M3111.4801,-571.9176C3093.8957,-569.2785 3076.3876,-566.9236 3059.3846,-565 2762.8234,-531.4499 2011.7328,-561.5284 1717.3846,-512.2 1524.1882,-479.8231 1412.2152,-542.2378 1295.3846,-385 1271.2102,-352.4646 1270.8963,-326.0997 1295.3846,-293.8 1305.4702,-280.4973 1377.4441,-260.2547 1447.2813,-243.2598"/>
<polygon fill="#000000" stroke="#000000" points="1448.2163,-246.6347 1457.1148,-240.8843 1446.5726,-239.8304 1448.2163,-246.6347"/>
<text text-anchor="middle" x="1347.5804" y="-407.2" font-family="Courier,monospace" font-size="14.00" fill="#000000">SGREAT</text>
</g>
<!-- 10&#45;&gt;4 -->
<g id="edge38" class="edge">
<title>10-&gt;4</title>
<path fill="none" stroke="#000000" d="M3581.159,-584.9025C3626.9952,-578.2762 3674.6927,-571.4022 3719.3846,-565 3802.0361,-553.16 4022.2689,-559.0452 4091.3846,-512.2 4092.1585,-511.6755 4195.9934,-330.1083 4241.9362,-249.7314"/>
<polygon fill="#000000" stroke="#000000" points="4245.0572,-251.3241 4246.9808,-240.9054 4238.9798,-247.8505 4245.0572,-251.3241"/>
<text text-anchor="middle" x="4173.3811" y="-407.2" font-family="Courier,monospace" font-size="14.00" fill="#000000">DLESS</text>
</g>
<!-- 10&#45;&gt;5 -->
<g id="edge39" class="edge">
<title>10-&gt;5</title>
<path fill="none" stroke="#000000" d="M3276.2267,-564.7627C3199.2616,-506.5345 3079.6034,-420.0526 3026.3846,-403 2990.3431,-391.4514 2376.0763,-407.1445 2345.3846,-385 2310.4283,-359.7786 2338.1223,-328.3779 2312.3846,-293.8 2298.7798,-275.5223 2279.9478,-259.4948 2261.7079,-246.5938"/>
<polygon fill="#000000" stroke="#000000" points="2263.6165,-243.6587 2253.39,-240.8894 2259.6575,-249.4316 2263.6165,-243.6587"/>
<text text-anchor="middle" x="3088.5804" y="-407.2" font-family="Courier,monospace" font-size="14.00" fill="#000000">DGREAT</text>
</g>
<!-- 10&#45;&gt;7 -->
<g id="edge41" class="edge">
<title>10-&gt;7</title>
<path fill="none" stroke="#000000" stroke-dasharray="5,2" d="M3330.2455,-564.6456C3321.9343,-524.3449 3319.1872,-470.8771 3350.3846,-437.8 3367.4408,-419.7162 3548.672,-422.4882 3573.3846,-419.8 3686.6599,-407.4782 3752.482,-470.8646 3827.3846,-385 3854.0298,-354.4552 3852.7056,-325.4512 3827.3846,-293.8 3804.6179,-265.3417 3781.2175,-289.3473 3747.3846,-275.8 3733.9119,-270.4053 3733.0516,-263.8814 3719.3846,-259 3685.9049,-247.0422 3607.1098,-235.4286 3536.2126,-226.7618"/>
<polygon fill="#000000" stroke="#000000" points="3536.6147,-223.285 3526.2667,-225.5587 3535.774,-230.2343 3536.6147,-223.285"/>
<text text-anchor="middle" x="3838.7797" y="-407.2" font-family="Courier,monospace" font-size="14.00" fill="#000000">io_file</text>
</g>
<!-- 10&#45;&gt;8 -->
<g id="edge42" class="edge">
<title>10-&gt;8</title>
<path fill="none" stroke="#000000" stroke-dasharray="5,2" d="M3581.1135,-565.0969C3612.2593,-551.2637 3642.1053,-533.9233 3667.3846,-512.2 3695.5453,-488.0006 3674.5227,-458.4442 3705.3846,-437.8 3746.7083,-410.1576 3879.878,-430.7023 3928.3846,-419.8 3971.0369,-410.2135 3995.5353,-420.9671 4020.3846,-385 4043.4246,-351.6517 4033.7613,-332.0624 4020.3846,-293.8 4014.6427,-277.3761 4004.0575,-261.7882 3993.0724,-248.7215"/>
<polygon fill="#000000" stroke="#000000" points="3995.4515,-246.1266 3986.2206,-240.9265 3990.1938,-250.7481 3995.4515,-246.1266"/>
<text text-anchor="middle" x="4032.7797" y="-407.2" font-family="Courier,monospace" font-size="14.00" fill="#000000">io_here</text>
</g>
<!-- 22 -->
<g id="node28" class="node">
<title>22</title>
<polygon fill="none" stroke="#000000" points="3658.6539,-503.6014 3458.1153,-503.6014 3458.1153,-446.3986 3658.6539,-446.3986 3658.6539,-503.6014"/>
<text text-anchor="middle" x="3558.3846" y="-487.2" font-family="Courier,monospace" font-size="14.00" fill="#000000">State 22</text>
<text text-anchor="start" x="3466" y="-454.4" font-family="Courier,monospace" font-size="14.00" fill="#000000">  2 cmd_word: WORD •</text>
</g>
<!-- 10&#45;&gt;22 -->
<g id="edge35" class="edge">
<title>10-&gt;22</title>
<path fill="none" stroke="#000000" d="M3425.9287,-564.97C3453.3599,-546.3375 3483.3163,-525.9898 3507.7909,-509.3655"/>
<polygon fill="#000000" stroke="#000000" points="3509.9005,-512.1637 3516.2061,-503.6495 3505.9673,-506.3732 3509.9005,-512.1637"/>
<text text-anchor="middle" x="3488.1818" y="-534.4" font-family="Courier,monospace" font-size="14.00" fill="#000000">WORD</text>
</g>
<!-- 23 -->
<g id="node29" class="node">
<title>23</title>
<polygon fill="none" stroke="#000000" points="2195.9092,-512.4011 1726.86,-512.4011 1726.86,-437.5989 2195.9092,-437.5989 2195.9092,-512.4011"/>
<text text-anchor="middle" x="1961.3846" y="-495.6" font-family="Courier,monospace" font-size="14.00" fill="#000000">State 23</text>
<text text-anchor="start" x="1734.6224" y="-462.8" font-family="Courier,monospace" font-size="14.00" fill="#000000"> 17 simple_command: cmd_prefix cmd_word • cmd_suffix</text>
<text text-anchor="start" x="1734.6224" y="-446" font-family="Courier,monospace" font-size="14.00" fill="#000000"> 18               | cmd_prefix cmd_word •</text>
</g>
<!-- 10&#45;&gt;23 -->
<g id="edge40" class="edge">
<title>10-&gt;23</title>
<path fill="none" stroke="#000000" stroke-dasharray="5,2" d="M3111.7694,-572.7957C3094.0771,-569.9433 3076.4686,-567.301 3059.3846,-565 2767.4583,-525.6812 2429.3913,-501.0979 2206.3521,-487.7507"/>
<polygon fill="#000000" stroke="#000000" points="2206.3407,-484.2439 2196.1503,-487.1432 2205.9246,-491.2315 2206.3407,-484.2439"/>
<text text-anchor="middle" x="2944.979" y="-534.4" font-family="Courier,monospace" font-size="14.00" fill="#000000">cmd_word</text>
</g>
<!-- 24 -->
<g id="node30" class="node">
<title>24</title>
<polygon fill="none" stroke="#000000" points="4082.6259,-503.6014 3714.1433,-503.6014 3714.1433,-446.3986 4082.6259,-446.3986 4082.6259,-503.6014"/>
<text text-anchor="middle" x="3898.3846" y="-487.2" font-family="Courier,monospace" font-size="14.00" fill="#000000">State 24</text>
<text text-anchor="start" x="3722.014" y="-454.4" font-family="Courier,monospace" font-size="14.00" fill="#000000"> 12 cmd_prefix: cmd_prefix io_redirect •</text>
</g>
<!-- 10&#45;&gt;24 -->
<g id="edge43" class="edge">
<title>10-&gt;24</title>
<path fill="none" stroke="#000000" stroke-dasharray="5,2" d="M3581.2997,-576.3146C3621.2801,-567.5994 3662.2038,-557.7608 3700.3846,-547 3739.6506,-535.9334 3782.2852,-520.8431 3817.9,-507.3357"/>
<polygon fill="#000000" stroke="#000000" points="3819.1789,-510.5939 3827.2722,-503.7565 3816.6816,-504.0546 3819.1789,-510.5939"/>
<text text-anchor="middle" x="3796.5769" y="-534.4" font-family="Courier,monospace" font-size="14.00" fill="#000000">io_redirect</text>
</g>
<!-- 10R19 -->
<g id="node31" class="node">
<title>10R19</title>
<polygon fill="#b2df8a" stroke="#000000" points="3399.3846,-493 3359.0108,-475 3399.3846,-457 3439.7584,-475 3399.3846,-493"/>
<text text-anchor="middle" x="3399.3846" y="-470.8" font-family="Courier,monospace" font-size="14.00" fill="#000000">R19</text>
</g>
<!-- 10&#45;&gt;10R19 -->
<g id="edge44" class="edge">
<title>10-&gt;10R19</title>
<path fill="none" stroke="#000000" d="M3366.2706,-564.97C3374.4606,-542.7179 3383.5511,-518.0194 3390.1323,-500.1385"/>
<polygon fill="#000000" stroke="#000000" points="3393.4304,-501.3104 3393.5999,-490.7169 3386.8612,-498.8925 3393.4304,-501.3104"/>
</g>
<!-- 11R22 -->
<g id="node32" class="node">
<title>11R22</title>
<polygon fill="#b2df8a" stroke="#000000" points="4588.3846,-772.6 4548.0108,-754.6 4588.3846,-736.6 4628.7584,-754.6 4588.3846,-772.6"/>
<text text-anchor="middle" x="4588.3846" y="-750.4" font-family="Courier,monospace" font-size="14.00" fill="#000000">R22</text>
</g>
<!-- 11&#45;&gt;11R22 -->
<g id="edge45" class="edge">
<title>11-&gt;11R22</title>
<path fill="none" stroke="#000000" d="M4588.3846,-844.6418C4588.3846,-825.9281 4588.3846,-801.6268 4588.3846,-782.9875"/>
<polygon fill="#000000" stroke="#000000" points="4591.8847,-782.7522 4588.3846,-772.7523 4584.8847,-782.7523 4591.8847,-782.7522"/>
</g>
<!-- 25 -->
<g id="node33" class="node">
<title>25</title>
<polygon fill="none" stroke="#000000" points="898.3356,-783.2014 588.4336,-783.2014 588.4336,-725.9986 898.3356,-725.9986 898.3356,-783.2014"/>
<text text-anchor="middle" x="743.3846" y="-766.8" font-family="Courier,monospace" font-size="14.00" fill="#000000">State 25</text>
<text text-anchor="start" x="596.4091" y="-734" font-family="Courier,monospace" font-size="14.00" fill="#000000">  0 $accept: pipe_sequence $end •</text>
</g>
<!-- 12&#45;&gt;25 -->
<g id="edge46" class="edge">
<title>12-&gt;25</title>
<path fill="none" stroke="#000000" d="M1065.9632,-836.1369C1001.9548,-819.9577 927.8308,-801.2217 866.7896,-785.7926"/>
<polygon fill="#000000" stroke="#000000" points="867.2736,-782.3049 856.7208,-783.2475 865.5581,-789.0915 867.2736,-782.3049"/>
<text text-anchor="middle" x="1010.1818" y="-805.6" font-family="Courier,monospace" font-size="14.00" fill="#000000">$end</text>
</g>
<!-- 26 -->
<g id="node34" class="node">
<title>26</title>
<polygon fill="none" stroke="#000000" points="1456.7063,-783.2014 970.0629,-783.2014 970.0629,-725.9986 1456.7063,-725.9986 1456.7063,-783.2014"/>
<text text-anchor="middle" x="1213.3846" y="-766.8" font-family="Courier,monospace" font-size="14.00" fill="#000000">State 26</text>
<text text-anchor="start" x="978.2238" y="-734" font-family="Courier,monospace" font-size="14.00" fill="#000000"> 23 pipe_sequence: pipe_sequence PIPE • simple_command</text>
</g>
<!-- 12&#45;&gt;26 -->
<g id="edge47" class="edge">
<title>12-&gt;26</title>
<path fill="none" stroke="#000000" d="M1213.3846,-836.1369C1213.3846,-822.5806 1213.3846,-807.2293 1213.3846,-793.5322"/>
<polygon fill="#000000" stroke="#000000" points="1216.8847,-793.4375 1213.3846,-783.4375 1209.8847,-793.4376 1216.8847,-793.4375"/>
<text text-anchor="middle" x="1230.1818" y="-805.6" font-family="Courier,monospace" font-size="14.00" fill="#000000">PIPE</text>
</g>
<!-- 13R3 -->
<g id="node35" class="node">
<title>13R3</title>
<polygon fill="#b2df8a" stroke="#000000" points="1466.3846,-36 1434.3973,-18 1466.3846,0 1498.3719,-18 1466.3846,-36"/>
<text text-anchor="middle" x="1466.3846" y="-13.8" font-family="Courier,monospace" font-size="14.00" fill="#000000">R3</text>
</g>
<!-- 13&#45;&gt;13R3 -->
<g id="edge48" class="edge">
<title>13-&gt;13R3</title>
<path fill="none" stroke="#000000" d="M1466.3846,-72.9608C1466.3846,-64.4388 1466.3846,-55.1159 1466.3846,-46.6085"/>
<polygon fill="#000000" stroke="#000000" points="1469.8847,-46.3902 1466.3846,-36.3903 1462.8847,-46.3903 1469.8847,-46.3902"/>
</g>
<!-- 14R5 -->
<g id="node36" class="node">
<title>14R5</title>
<polygon fill="#b2df8a" stroke="#000000" points="1037.3846,-36 1005.3973,-18 1037.3846,0 1069.3719,-18 1037.3846,-36"/>
<text text-anchor="middle" x="1037.3846" y="-13.8" font-family="Courier,monospace" font-size="14.00" fill="#000000">R5</text>
</g>
<!-- 14&#45;&gt;14R5 -->
<g id="edge49" class="edge">
<title>14-&gt;14R5</title>
<path fill="none" stroke="#000000" d="M1037.3846,-72.9608C1037.3846,-64.4388 1037.3846,-55.1159 1037.3846,-46.6085"/>
<polygon fill="#000000" stroke="#000000" points="1040.8847,-46.3902 1037.3846,-36.3903 1033.8847,-46.3903 1040.8847,-46.3902"/>
</g>
<!-- 15R6 -->
<g id="node37" class="node">
<title>15R6</title>
<polygon fill="#b2df8a" stroke="#000000" points="1727.3846,-36 1695.3973,-18 1727.3846,0 1759.3719,-18 1727.3846,-36"/>
<text text-anchor="middle" x="1727.3846" y="-13.8" font-family="Courier,monospace" font-size="14.00" fill="#000000">R6</text>
</g>
<!-- 15&#45;&gt;15R6 -->
<g id="edge50" class="edge">
<title>15-&gt;15R6</title>
<path fill="none" stroke="#000000" d="M1727.3846,-72.9608C1727.3846,-64.4388 1727.3846,-55.1159 1727.3846,-46.6085"/>
<polygon fill="#000000" stroke="#000000" points="1730.8847,-46.3902 1727.3846,-36.3903 1723.8847,-46.3903 1730.8847,-46.3902"/>
</g>
<!-- 16R4 -->
<g id="node38" class="node">
<title>16R4</title>
<polygon fill="#b2df8a" stroke="#000000" points="4419.3846,-36 4387.3973,-18 4419.3846,0 4451.3719,-18 4419.3846,-36"/>
<text text-anchor="middle" x="4419.3846" y="-13.8" font-family="Courier,monospace" font-size="14.00" fill="#000000">R4</text>
</g>
<!-- 16&#45;&gt;16R4 -->
<g id="edge51" class="edge">
<title>16-&gt;16R4</title>
<path fill="none" stroke="#000000" d="M4419.3846,-72.9608C4419.3846,-64.4388 4419.3846,-55.1159 4419.3846,-46.6085"/>
<polygon fill="#000000" stroke="#000000" points="4422.8847,-46.3902 4419.3846,-36.3903 4415.8847,-46.3903 4422.8847,-46.3902"/>
</g>
<!-- 17R8 -->
<g id="node39" class="node">
<title>17R8</title>
<polygon fill="#b2df8a" stroke="#000000" points="4162.3846,-36 4130.3973,-18 4162.3846,0 4194.3719,-18 4162.3846,-36"/>
<text text-anchor="middle" x="4162.3846" y="-13.8" font-family="Courier,monospace" font-size="14.00" fill="#000000">R8</text>
</g>
<!-- 17&#45;&gt;17R8 -->
<g id="edge52" class="edge">
<title>17-&gt;17R8</title>
<path fill="none" stroke="#000000" d="M4162.3846,-72.9608C4162.3846,-64.4388 4162.3846,-55.1159 4162.3846,-46.6085"/>
<polygon fill="#000000" stroke="#000000" points="4165.8847,-46.3902 4162.3846,-36.3903 4158.8847,-46.3903 4165.8847,-46.3902"/>
</g>
<!-- 18R7 -->
<g id="node40" class="node">
<title>18R7</title>
<polygon fill="#b2df8a" stroke="#000000" points="2202.3846,-36 2170.3973,-18 2202.3846,0 2234.3719,-18 2202.3846,-36"/>
<text text-anchor="middle" x="2202.3846" y="-13.8" font-family="Courier,monospace" font-size="14.00" fill="#000000">R7</text>
</g>
<!-- 18&#45;&gt;18R7 -->
<g id="edge53" class="edge">
<title>18-&gt;18R7</title>
<path fill="none" stroke="#000000" d="M2202.3846,-72.9608C2202.3846,-64.4388 2202.3846,-55.1159 2202.3846,-46.6085"/>
<polygon fill="#000000" stroke="#000000" points="2205.8847,-46.3902 2202.3846,-36.3903 2198.8847,-46.3903 2205.8847,-46.3902"/>
</g>
<!-- 19R15 -->
<g id="node41" class="node">
<title>19R15</title>
<polygon fill="#b2df8a" stroke="#000000" points="1385.3846,-230.2 1345.0108,-212.2 1385.3846,-194.2 1425.7584,-212.2 1385.3846,-230.2"/>
<text text-anchor="middle" x="1385.3846" y="-208" font-family="Courier,monospace" font-size="14.00" fill="#000000">R15</text>
</g>
<!-- 19&#45;&gt;19R15 -->
<g id="edge54" class="edge">
<title>19-&gt;19R15</title>
<path fill="none" stroke="#000000" d="M1407.031,-310.5364C1402.2827,-288.9657 1395.8417,-259.7051 1391.2224,-238.7204"/>
<polygon fill="#000000" stroke="#000000" points="1394.6221,-237.8837 1389.0541,-228.87 1387.7858,-239.3887 1394.6221,-237.8837"/>
</g>
<!-- 20R13 -->
<g id="node42" class="node">
<title>20R13</title>
<polygon fill="#b2df8a" stroke="#000000" points="1950.3846,-230.2 1910.0108,-212.2 1950.3846,-194.2 1990.7584,-212.2 1950.3846,-230.2"/>
<text text-anchor="middle" x="1950.3846" y="-208" font-family="Courier,monospace" font-size="14.00" fill="#000000">R13</text>
</g>
<!-- 20&#45;&gt;20R13 -->
<g id="edge55" class="edge">
<title>20-&gt;20R13</title>
<path fill="none" stroke="#000000" d="M1950.3846,-310.5364C1950.3846,-289.5635 1950.3846,-261.3211 1950.3846,-240.4839"/>
<polygon fill="#000000" stroke="#000000" points="1953.8847,-240.3402 1950.3846,-230.3402 1946.8847,-240.3402 1953.8847,-240.3402"/>
</g>
<!-- 21&#45;&gt;2 -->
<g id="edge57" class="edge">
<title>21-&gt;2</title>
<path fill="none" stroke="#000000" d="M2841.7957,-294.9111C2838.9764,-294.5191 2836.1714,-294.1482 2833.3846,-293.8 2645.4715,-270.3223 2170.4204,-287.2301 1981.3916,-275.8 1906.4862,-271.2706 1888.2498,-264.1507 1813.3846,-259 1601.734,-244.4385 1548.0613,-255.1763 1336.3846,-241 1287.3208,-237.7141 1233.8356,-232.9416 1185.8426,-228.2234"/>
<polygon fill="#000000" stroke="#000000" points="1185.9846,-224.7204 1175.6884,-227.2179 1185.2948,-231.6863 1185.9846,-224.7204"/>
<text text-anchor="middle" x="2003.3811" y="-263.2" font-family="Courier,monospace" font-size="14.00" fill="#000000">SLESS</text>
</g>
<!-- 21&#45;&gt;3 -->
<g id="edge58" class="edge">
<title>21-&gt;3</title>
<path fill="none" stroke="#000000" d="M2841.7752,-295.0636C2838.9622,-294.6241 2836.1641,-294.2023 2833.3846,-293.8 2701.4565,-274.7026 2666.6622,-288.7854 2533.993,-275.8 2478.8145,-270.3992 2465.6256,-263.7189 2410.3846,-259 2184.8424,-239.7333 2127.2954,-255.3106 1901.3846,-241 1848.4628,-237.6476 1790.6474,-232.7266 1739.1597,-227.8974"/>
<polygon fill="#000000" stroke="#000000" points="1739.2347,-224.389 1728.9499,-226.9332 1738.5765,-231.358 1739.2347,-224.389"/>
<text text-anchor="middle" x="2559.5804" y="-263.2" font-family="Courier,monospace" font-size="14.00" fill="#000000">SGREAT</text>
</g>
<!-- 21&#45;&gt;4 -->
<g id="edge59" class="edge">
<title>21-&gt;4</title>
<path fill="none" stroke="#000000" d="M3219.0047,-295.8021C3223.8384,-295.081 3228.6377,-294.411 3233.3846,-293.8 3459.658,-264.6736 3518.7707,-291.2894 3746.3846,-275.8 3899.6992,-265.3667 3938.0703,-261.3611 4090.3846,-241 4098.5189,-239.9126 4106.8581,-238.735 4115.2689,-237.4981"/>
<polygon fill="#000000" stroke="#000000" points="4115.7935,-240.9586 4125.1673,-236.0207 4114.7601,-234.0353 4115.7935,-240.9586"/>
<text text-anchor="middle" x="3969.3811" y="-263.2" font-family="Courier,monospace" font-size="14.00" fill="#000000">DLESS</text>
</g>
<!-- 21&#45;&gt;5 -->
<g id="edge60" class="edge">
<title>21-&gt;5</title>
<path fill="none" stroke="#000000" d="M2841.5885,-295.5384C2795.3226,-284.7473 2758.6234,-276.1297 2757.993,-275.8 2748.1195,-270.6362 2749.6879,-263.2418 2739.3846,-259 2662.8918,-227.5086 2454.3723,-249.3819 2354.8374,-240.8181"/>
<polygon fill="#000000" stroke="#000000" points="2354.9919,-237.316 2344.6902,-239.7908 2354.2868,-244.2804 2354.9919,-237.316"/>
<text text-anchor="middle" x="2783.5804" y="-263.2" font-family="Courier,monospace" font-size="14.00" fill="#000000">DGREAT</text>
</g>
<!-- 21&#45;&gt;7 -->
<g id="edge61" class="edge">
<title>21-&gt;7</title>
<path fill="none" stroke="#000000" stroke-dasharray="5,2" d="M3139.7081,-293.6277C3151.249,-287.9555 3162.6714,-281.9698 3173.3846,-275.8 3184.4197,-269.4449 3184.999,-264.2638 3196.5944,-259 3204.1156,-255.5857 3232.0482,-248.6836 3264.9277,-241.2053"/>
<polygon fill="#000000" stroke="#000000" points="3265.8112,-244.594 3274.7943,-238.9766 3264.2689,-237.766 3265.8112,-244.594"/>
<text text-anchor="middle" x="3226.7797" y="-263.2" font-family="Courier,monospace" font-size="14.00" fill="#000000">io_file</text>
</g>
<!-- 21&#45;&gt;8 -->
<g id="edge62" class="edge">
<title>21-&gt;8</title>
<path fill="none" stroke="#000000" stroke-dasharray="5,2" d="M3219.0213,-295.9263C3223.85,-295.1683 3228.6439,-294.4571 3233.3846,-293.8 3378.8784,-273.6339 3417.3505,-291.5842 3563.3846,-275.8 3648.9938,-266.5469 3744.3716,-251.1849 3819.6108,-237.8769"/>
<polygon fill="#000000" stroke="#000000" points="3820.3875,-241.2938 3829.6206,-236.0976 3819.1623,-234.4018 3820.3875,-241.2938"/>
<text text-anchor="middle" x="3712.7797" y="-263.2" font-family="Courier,monospace" font-size="14.00" fill="#000000">io_here</text>
</g>
<!-- 27 -->
<g id="node43" class="node">
<title>27</title>
<polygon fill="none" stroke="#000000" points="2771.3356,-240.8014 2461.4336,-240.8014 2461.4336,-183.5986 2771.3356,-183.5986 2771.3356,-240.8014"/>
<text text-anchor="middle" x="2616.3846" y="-224.4" font-family="Courier,monospace" font-size="14.00" fill="#000000">State 27</text>
<text text-anchor="start" x="2469.4091" y="-191.6" font-family="Courier,monospace" font-size="14.00" fill="#000000"> 16 cmd_suffix: cmd_suffix WORD •</text>
</g>
<!-- 21&#45;&gt;27 -->
<g id="edge56" class="edge">
<title>21-&gt;27</title>
<path fill="none" stroke="#000000" d="M2964.3825,-293.6224C2942.8995,-280.6042 2918.3878,-267.633 2894.3846,-259 2848.9453,-242.6573 2832.868,-248.6091 2781.7266,-241.1181"/>
<polygon fill="#000000" stroke="#000000" points="2782.1759,-237.6458 2771.7544,-239.5545 2781.0915,-244.5614 2782.1759,-237.6458"/>
<text text-anchor="middle" x="2947.1818" y="-263.2" font-family="Courier,monospace" font-size="14.00" fill="#000000">WORD</text>
</g>
<!-- 28 -->
<g id="node44" class="node">
<title>28</title>
<polygon fill="none" stroke="#000000" points="3157.6259,-240.8014 2789.1433,-240.8014 2789.1433,-183.5986 3157.6259,-183.5986 3157.6259,-240.8014"/>
<text text-anchor="middle" x="2973.3846" y="-224.4" font-family="Courier,monospace" font-size="14.00" fill="#000000">State 28</text>
<text text-anchor="start" x="2797.014" y="-191.6" font-family="Courier,monospace" font-size="14.00" fill="#000000"> 14 cmd_suffix: cmd_suffix io_redirect •</text>
</g>
<!-- 21&#45;&gt;28 -->
<g id="edge63" class="edge">
<title>21-&gt;28</title>
<path fill="none" stroke="#000000" stroke-dasharray="5,2" d="M2983.4764,-293.6339C2979.675,-287.9803 2976.3858,-281.9969 2974,-275.8 2971.0102,-268.0343 2969.7274,-259.3294 2969.4055,-250.9111"/>
<polygon fill="#000000" stroke="#000000" points="2972.9056,-250.879 2969.4395,-240.8672 2965.9056,-250.8553 2972.9056,-250.879"/>
<text text-anchor="middle" x="3020.5769" y="-263.2" font-family="Courier,monospace" font-size="14.00" fill="#000000">io_redirect</text>
</g>
<!-- 21R20 -->
<g id="node45" class="node">
<title>21R20</title>
<polygon fill="#b2df8a" stroke="#000000" points="3216.3846,-230.2 3176.0108,-212.2 3216.3846,-194.2 3256.7584,-212.2 3216.3846,-230.2"/>
<text text-anchor="middle" x="3216.3846" y="-208" font-family="Courier,monospace" font-size="14.00" fill="#000000">R20</text>
</g>
<!-- 21&#45;&gt;21R20 -->
<g id="edge64" class="edge">
<title>21-&gt;21R20</title>
<path fill="none" stroke="#000000" d="M3058.5342,-293.6223C3068.4337,-280.7627 3080.5814,-267.8812 3094.3846,-259 3122.1237,-241.1522 3135.7992,-253.3505 3166.3846,-241 3174.7968,-237.6031 3183.5145,-233.0054 3191.2688,-228.4815"/>
<polygon fill="#000000" stroke="#000000" points="3193.1136,-231.4562 3199.8531,-223.2813 3189.4866,-225.4691 3193.1136,-231.4562"/>
</g>
<!-- 22R2 -->
<g id="node46" class="node">
<title>22R2</title>
<polygon fill="#b2df8a" stroke="#000000" points="3979.3846,-357.4 3947.3973,-339.4 3979.3846,-321.4 4011.3719,-339.4 3979.3846,-357.4"/>
<text text-anchor="middle" x="3979.3846" y="-335.2" font-family="Courier,monospace" font-size="14.00" fill="#000000">R2</text>
</g>
<!-- 22&#45;&gt;22R2 -->
<g id="edge65" class="edge">
<title>22-&gt;22R2</title>
<path fill="none" stroke="#000000" d="M3638.0926,-446.3568C3649.4896,-443.0352 3661.1556,-440.0404 3672.3846,-437.8 3722.4438,-427.8123 3855.1898,-441.5191 3901.3846,-419.8 3928.5806,-407.0134 3951.3645,-380.3688 3965.1536,-361.2552"/>
<polygon fill="#000000" stroke="#000000" points="3968.1787,-363.0352 3971.01,-352.8256 3962.4299,-359.0412 3968.1787,-363.0352"/>
</g>
<!-- 23&#45;&gt;2 -->
<g id="edge67" class="edge">
<title>23-&gt;2</title>
<path fill="none" stroke="#000000" d="M1726.686,-449.2474C1648.3113,-440.3328 1560.5351,-430.008 1480.3846,-419.8 1426.9627,-412.9962 1413.9435,-408.6253 1360.3846,-403 1332.0267,-400.0215 1127.9531,-401.0592 1104.3916,-385 1060.5173,-355.0958 1045.3637,-291.9453 1040.1343,-250.8344"/>
<polygon fill="#000000" stroke="#000000" points="1043.6113,-250.4331 1039.0071,-240.891 1036.6558,-251.2216 1043.6113,-250.4331"/>
<text text-anchor="middle" x="1126.3811" y="-335.2" font-family="Courier,monospace" font-size="14.00" fill="#000000">SLESS</text>
</g>
<!-- 23&#45;&gt;3 -->
<g id="edge68" class="edge">
<title>23-&gt;3</title>
<path fill="none" stroke="#000000" d="M1726.8308,-446.2463C1655.4422,-432.3654 1589.9639,-412.565 1567.993,-385 1537.743,-347.0479 1552.7728,-288.5594 1568.1206,-250.3303"/>
<polygon fill="#000000" stroke="#000000" points="1571.3633,-251.6479 1572.0021,-241.0723 1564.9077,-248.9413 1571.3633,-251.6479"/>
<text text-anchor="middle" x="1593.5804" y="-335.2" font-family="Courier,monospace" font-size="14.00" fill="#000000">SGREAT</text>
</g>
<!-- 23&#45;&gt;4 -->
<g id="edge69" class="edge">
<title>23-&gt;4</title>
<path fill="none" stroke="#000000" d="M2195.9852,-462.0761C2482.5237,-446.2664 2931.7709,-421.389 2950.3846,-419.8 3015.465,-414.2443 3031.2692,-408.1284 3096.3846,-403 3119.7779,-401.1576 3499.6028,-399.0672 3518.3846,-385 3552.6509,-359.3352 3515.1701,-319.5246 3549.3916,-293.8 3584.0661,-267.7349 3896.3177,-280.992 3939.3846,-275.8 3973.9649,-271.6311 4048.7251,-257.0885 4117.726,-242.9604"/>
<polygon fill="#000000" stroke="#000000" points="4118.7673,-246.3197 4127.8591,-240.8802 4117.3596,-239.4627 4118.7673,-246.3197"/>
<text text-anchor="middle" x="3571.3811" y="-335.2" font-family="Courier,monospace" font-size="14.00" fill="#000000">DLESS</text>
</g>
<!-- 23&#45;&gt;5 -->
<g id="edge70" class="edge">
<title>23-&gt;5</title>
<path fill="none" stroke="#000000" d="M2054.9963,-437.7077C2063.3899,-432.3816 2071.3574,-426.4249 2078.3846,-419.8 2091.2067,-407.712 2091.0042,-401.4261 2097.3846,-385 2118.2656,-331.243 2094.6862,-305.8001 2128.3846,-259 2131.3616,-254.8656 2134.8274,-251.0116 2138.6031,-247.4354"/>
<polygon fill="#000000" stroke="#000000" points="2140.9013,-250.0753 2146.1989,-240.9 2136.3357,-244.7691 2140.9013,-250.0753"/>
<text text-anchor="middle" x="2136.5804" y="-335.2" font-family="Courier,monospace" font-size="14.00" fill="#000000">DGREAT</text>
</g>
<!-- 23&#45;&gt;7 -->
<g id="edge71" class="edge">
<title>23-&gt;7</title>
<path fill="none" stroke="#000000" stroke-dasharray="5,2" d="M2196.1493,-445.4428C2325.2653,-430.3068 2488.4308,-413.0041 2634.3846,-403 2667.3225,-400.7423 3202.2135,-405.1265 3228.3846,-385 3261.9149,-359.214 3229.2026,-326.8556 3255.5944,-293.8 3271.5673,-273.794 3293.8599,-257.8538 3316.173,-245.5643"/>
<polygon fill="#000000" stroke="#000000" points="3317.8483,-248.6376 3325.0451,-240.8622 3314.5703,-242.4526 3317.8483,-248.6376"/>
<text text-anchor="middle" x="3285.7797" y="-335.2" font-family="Courier,monospace" font-size="14.00" fill="#000000">io_file</text>
</g>
<!-- 23&#45;&gt;8 -->
<g id="edge72" class="edge">
<title>23-&gt;8</title>
<path fill="none" stroke="#000000" stroke-dasharray="5,2" d="M2196.0101,-458.9271C2420.6361,-443.7415 2769.0773,-420.7131 3071.3846,-403 3109.5936,-400.7612 3383.4926,-406.1622 3415.3846,-385 3452.9178,-360.0945 3421.9014,-318.463 3459.5944,-293.8 3502.0982,-265.9892 3872.5607,-301.4803 3916.3846,-275.8 3926.5835,-269.8235 3934.4673,-260.025 3940.3903,-249.8892"/>
<polygon fill="#000000" stroke="#000000" points="3943.5194,-251.4591 3945.0996,-240.9827 3937.3312,-248.187 3943.5194,-251.4591"/>
<text text-anchor="middle" x="3489.7797" y="-335.2" font-family="Courier,monospace" font-size="14.00" fill="#000000">io_here</text>
</g>
<!-- 23&#45;&gt;19 -->
<g id="edge66" class="edge">
<title>23-&gt;19</title>
<path fill="none" stroke="#000000" d="M1726.8326,-458.2299C1638.8033,-449.4313 1550.4783,-436.86 1510.7902,-419.8 1487.0317,-409.5874 1464.4907,-391.7206 1447.088,-375.4195"/>
<polygon fill="#000000" stroke="#000000" points="1449.0962,-372.494 1439.4678,-368.0732 1444.2378,-377.5335 1449.0962,-372.494"/>
<text text-anchor="middle" x="1528.1818" y="-407.2" font-family="Courier,monospace" font-size="14.00" fill="#000000">WORD</text>
</g>
<!-- 23&#45;&gt;20 -->
<g id="edge73" class="edge">
<title>23-&gt;20</title>
<path fill="none" stroke="#000000" stroke-dasharray="5,2" d="M1935.958,-437.563C1933.0986,-431.8233 1930.6313,-425.8044 1929,-419.8 1925.2883,-406.1382 1927.5536,-391.1519 1931.7632,-377.858"/>
<polygon fill="#000000" stroke="#000000" points="1935.1924,-378.6663 1935.2945,-368.072 1928.6079,-376.2903 1935.1924,-378.6663"/>
<text text-anchor="middle" x="1975.5769" y="-407.2" font-family="Courier,monospace" font-size="14.00" fill="#000000">io_redirect</text>
</g>
<!-- 29 -->
<g id="node47" class="node">
<title>29</title>
<polygon fill="none" stroke="#000000" points="2823.9092,-385.1002 2354.86,-385.1002 2354.86,-293.6998 2823.9092,-293.6998 2823.9092,-385.1002"/>
<text text-anchor="middle" x="2589.3846" y="-368.4" font-family="Courier,monospace" font-size="14.00" fill="#000000">State 29</text>
<text text-anchor="start" x="2362.6224" y="-335.6" font-family="Courier,monospace" font-size="14.00" fill="#000000"> 14 cmd_suffix: cmd_suffix • io_redirect</text>
<text text-anchor="start" x="2362.6224" y="-318.8" font-family="Courier,monospace" font-size="14.00" fill="#000000"> 16           | cmd_suffix • WORD</text>
<text text-anchor="start" x="2362.6224" y="-302" font-family="Courier,monospace" font-size="14.00" fill="#000000"> 17 simple_command: cmd_prefix cmd_word cmd_suffix •</text>
</g>
<!-- 23&#45;&gt;29 -->
<g id="edge74" class="edge">
<title>23-&gt;29</title>
<path fill="none" stroke="#000000" stroke-dasharray="5,2" d="M2133.819,-437.7673C2206.2483,-422.1282 2291.3875,-403.7446 2368.3402,-387.1287"/>
<polygon fill="#000000" stroke="#000000" points="2369.1314,-390.5386 2378.1674,-385.0068 2367.6539,-383.6963 2369.1314,-390.5386"/>
<text text-anchor="middle" x="2336.3776" y="-407.2" font-family="Courier,monospace" font-size="14.00" fill="#000000">cmd_suffix</text>
</g>
<!-- 23R18 -->
<g id="node48" class="node">
<title>23R18</title>
<polygon fill="#b2df8a" stroke="#000000" points="1667.3846,-357.4 1627.0108,-339.4 1667.3846,-321.4 1707.7584,-339.4 1667.3846,-357.4"/>
<text text-anchor="middle" x="1667.3846" y="-335.2" font-family="Courier,monospace" font-size="14.00" fill="#000000">R18</text>
</g>
<!-- 23&#45;&gt;23R18 -->
<g id="edge75" class="edge">
<title>23-&gt;23R18</title>
<path fill="none" stroke="#000000" d="M1837.7463,-437.7853C1799.1975,-423.8042 1757.3795,-406.0908 1721.3846,-385 1709.1434,-377.8274 1696.9441,-367.8317 1687.246,-359.0263"/>
<polygon fill="#000000" stroke="#000000" points="1689.4331,-356.2793 1679.7419,-351.9977 1684.6479,-361.3883 1689.4331,-356.2793"/>
</g>
<!-- 24R12 -->
<g id="node49" class="node">
<title>24R12</title>
<polygon fill="#b2df8a" stroke="#000000" points="4107.3846,-357.4 4067.0108,-339.4 4107.3846,-321.4 4147.7584,-339.4 4107.3846,-357.4"/>
<text text-anchor="middle" x="4107.3846" y="-335.2" font-family="Courier,monospace" font-size="14.00" fill="#000000">R12</text>
</g>
<!-- 24&#45;&gt;24R12 -->
<g id="edge76" class="edge">
<title>24-&gt;24R12</title>
<path fill="none" stroke="#000000" d="M4023.6204,-446.3633C4049.4017,-438.4115 4071.6691,-429.325 4081.3846,-419.8 4095.4382,-406.0221 4101.9025,-384.6048 4104.8724,-367.3387"/>
<polygon fill="#000000" stroke="#000000" points="4108.3671,-367.6225 4106.3066,-357.23 4101.4365,-366.6392 4108.3671,-367.6225"/>
</g>
<!-- 25R0 -->
<g id="node50" class="node">
<title>25R0</title>
<polygon fill="#a6cee3" stroke="#000000" points="336.3846,-637 296.0108,-619 336.3846,-601 376.7584,-619 336.3846,-637"/>
<text text-anchor="middle" x="336.3846" y="-614.8" font-family="Courier,monospace" font-size="14.00" fill="#000000">Acc</text>
</g>
<!-- 25&#45;&gt;25R0 -->
<g id="edge77" class="edge">
<title>25-&gt;25R0</title>
<path fill="none" stroke="#000000" d="M588.0994,-743.5219C516.7006,-736.2764 441.1198,-724.905 410.3846,-707.8 383.3172,-692.7362 361.9872,-663.5534 349.3165,-642.755"/>
<polygon fill="#000000" stroke="#000000" points="352.1875,-640.7313 344.1147,-633.8697 346.1466,-644.2679 352.1875,-640.7313"/>
</g>
<!-- 26&#45;&gt;1 -->
<g id="edge78" class="edge">
<title>26-&gt;1</title>
<path fill="none" stroke="#000000" d="M970.0253,-730.6819C948.8494,-728.908 927.7432,-727.2491 907.3846,-725.8 599.2714,-703.8695 511.6471,-756.9625 214.3846,-673 196.3356,-667.902 177.6046,-660.1717 160.6677,-652.1407"/>
<polygon fill="#000000" stroke="#000000" points="161.9824,-648.8881 151.4587,-647.6629 158.9214,-655.1834 161.9824,-648.8881"/>
<text text-anchor="middle" x="374.1818" y="-695.2" font-family="Courier,monospace" font-size="14.00" fill="#000000">WORD</text>
</g>
<!-- 26&#45;&gt;2 -->
<g id="edge79" class="edge">
<title>26-&gt;2</title>
<path fill="none" stroke="#000000" d="M972.0394,-725.9889C856.316,-710.2685 738.2195,-690.4695 717.3846,-673 697.8887,-656.6532 698.3846,-644.4423 698.3846,-619 698.3846,-619 698.3846,-619 698.3846,-339.4 698.3846,-295.8072 797.8906,-262.1132 889.0815,-240.3878"/>
<polygon fill="#000000" stroke="#000000" points="890.0738,-243.7501 899.0114,-238.0607 888.4765,-236.9348 890.0738,-243.7501"/>
<text text-anchor="middle" x="719.3811" y="-470.8" font-family="Courier,monospace" font-size="14.00" fill="#000000">SLESS</text>
</g>
<!-- 26&#45;&gt;3 -->
<g id="edge80" class="edge">
<title>26-&gt;3</title>
<path fill="none" stroke="#000000" d="M1222.4626,-725.7137C1232.8944,-687.1093 1245.6642,-617.4754 1221.3846,-565 1206.8303,-533.5439 1184.1201,-540.4172 1163.993,-512.2 1128.164,-461.9693 1121.0091,-445.3942 1108.3846,-385 1096.9263,-330.1848 1069.8936,-299.6749 1108.3846,-259 1131.8584,-234.1943 1368.1367,-244.028 1433.8743,-240.5665"/>
<polygon fill="#000000" stroke="#000000" points="1434.3841,-244.037 1444.0746,-239.754 1433.8282,-237.0591 1434.3841,-244.037"/>
<text text-anchor="middle" x="1189.5804" y="-470.8" font-family="Courier,monospace" font-size="14.00" fill="#000000">SGREAT</text>
</g>
<!-- 26&#45;&gt;4 -->
<g id="edge81" class="edge">
<title>26-&gt;4</title>
<path fill="none" stroke="#000000" d="M1456.7122,-751.4875C2056.9066,-743.16 3575.8121,-717.8971 3801.3846,-673 3853.4594,-662.6352 4219.9408,-554.9844 4251.3846,-512.2 4308.4041,-434.6158 4289.3864,-312.803 4274.3744,-250.981"/>
<polygon fill="#000000" stroke="#000000" points="4277.7553,-250.0737 4271.9183,-241.2318 4270.9674,-251.7839 4277.7553,-250.0737"/>
<text text-anchor="middle" x="4304.3811" y="-470.8" font-family="Courier,monospace" font-size="14.00" fill="#000000">DLESS</text>
</g>
<!-- 26&#45;&gt;5 -->
<g id="edge82" class="edge">
<title>26-&gt;5</title>
<path fill="none" stroke="#000000" d="M1234.5431,-725.9352C1237.9854,-720.1649 1241.1497,-713.9704 1243.3846,-707.8 1259.1727,-664.2096 1261.7914,-325.7513 1295.3846,-293.8 1352.223,-239.7396 1921.3988,-249.4471 1999.3846,-241 2015.8031,-239.2216 2032.938,-237.1419 2049.9902,-234.9285"/>
<polygon fill="#000000" stroke="#000000" points="2050.556,-238.3843 2060.0147,-233.6111 2049.6439,-231.444 2050.556,-238.3843"/>
<text text-anchor="middle" x="1292.5804" y="-470.8" font-family="Courier,monospace" font-size="14.00" fill="#000000">DGREAT</text>
</g>
<!-- 26&#45;&gt;6 -->
<g id="edge83" class="edge">
<title>26-&gt;6</title>
<path fill="none" stroke="#000000" stroke-dasharray="5,2" d="M1271.8918,-725.8035C1279.3833,-720.5055 1286.4832,-714.4982 1292.3846,-707.8 1338.1022,-655.9096 1297.5712,-604.7035 1354.1958,-565 1357.4407,-562.7248 2232.5666,-510.6352 2635.5114,-486.7614"/>
<polygon fill="#000000" stroke="#000000" points="2635.7541,-490.2533 2645.5296,-486.1679 2635.3401,-483.2655 2635.7541,-490.2533"/>
<text text-anchor="middle" x="1387.979" y="-614.8" font-family="Courier,monospace" font-size="14.00" fill="#000000">cmd_name</text>
</g>
<!-- 26&#45;&gt;7 -->
<g id="edge84" class="edge">
<title>26-&gt;7</title>
<path fill="none" stroke="#000000" stroke-dasharray="5,2" d="M1456.7515,-736.1936C1807.999,-706.472 2475.976,-638.1049 3032.3846,-512.2 3137.2592,-488.4688 3157.6095,-461.0385 3262.5944,-437.8 3274.2577,-435.2183 3681.4733,-393.9504 3689.3846,-385 3716.2289,-354.63 3713.8439,-326.1217 3689.3846,-293.8 3669.8965,-268.0474 3601.5859,-248.1095 3536.2719,-234.3897"/>
<polygon fill="#000000" stroke="#000000" points="3536.7443,-230.9136 3526.244,-232.326 3535.3332,-237.77 3536.7443,-230.9136"/>
<text text-anchor="middle" x="3292.7797" y="-470.8" font-family="Courier,monospace" font-size="14.00" fill="#000000">io_file</text>
</g>
<!-- 26&#45;&gt;8 -->
<g id="edge85" class="edge">
<title>26-&gt;8</title>
<path fill="none" stroke="#000000" stroke-dasharray="5,2" d="M1456.7487,-751.7802C1944.3398,-745.6758 3001.0544,-729.9774 3077.3846,-707.8 3091.3209,-703.7509 3091.4729,-695.1326 3105.3846,-691 3208.7713,-660.2879 3483.9286,-690.2967 3590.3846,-673 3734.8491,-649.5277 4137.4724,-552.8814 4198.3846,-419.8 4217.4499,-378.1459 4230.4787,-369.2754 4156.3846,-293.8 4135.4656,-272.491 4108.2238,-256.5541 4080.5824,-244.7057"/>
<polygon fill="#000000" stroke="#000000" points="4081.781,-241.4142 4071.2016,-240.8424 4079.1154,-247.8868 4081.781,-241.4142"/>
<text text-anchor="middle" x="4217.7797" y="-470.8" font-family="Courier,monospace" font-size="14.00" fill="#000000">io_here</text>
</g>
<!-- 26&#45;&gt;9 -->
<g id="edge86" class="edge">
<title>26-&gt;9</title>
<path fill="none" stroke="#000000" stroke-dasharray="5,2" d="M970.0111,-730.8749C948.8383,-729.0593 927.7367,-727.338 907.3846,-725.8 872.3846,-723.1551 622.4901,-725.1882 592,-707.8 572.2678,-696.547 557.7809,-675.7712 548.0321,-657.1434"/>
<polygon fill="#000000" stroke="#000000" points="551.0564,-655.3626 543.4942,-647.9422 544.7784,-658.4589 551.0564,-655.3626"/>
<text text-anchor="middle" x="638.5769" y="-695.2" font-family="Courier,monospace" font-size="14.00" fill="#000000">io_redirect</text>
</g>
<!-- 26&#45;&gt;10 -->
<g id="edge87" class="edge">
<title>26-&gt;10</title>
<path fill="none" stroke="#000000" stroke-dasharray="5,2" d="M1456.71,-751.9401C1922.4295,-746.3183 2900.1662,-731.7418 2970.3846,-707.8 2982.3708,-703.7131 2981.8143,-696.1163 2993.3986,-691 3005.6518,-685.5883 3049.2331,-675.7357 3101.8029,-665.0204"/>
<polygon fill="#000000" stroke="#000000" points="3102.6127,-668.4275 3111.718,-663.0104 3101.2219,-661.5671 3102.6127,-668.4275"/>
<text text-anchor="middle" x="3036.3776" y="-695.2" font-family="Courier,monospace" font-size="14.00" fill="#000000">cmd_prefix</text>
</g>
<!-- 30 -->
<g id="node51" class="node">
<title>30</title>
<polygon fill="none" stroke="#000000" points="1212.7063,-647.6014 726.0629,-647.6014 726.0629,-590.3986 1212.7063,-590.3986 1212.7063,-647.6014"/>
<text text-anchor="middle" x="969.3846" y="-631.2" font-family="Courier,monospace" font-size="14.00" fill="#000000">State 30</text>
<text text-anchor="start" x="734.2238" y="-598.4" font-family="Courier,monospace" font-size="14.00" fill="#000000"> 23 pipe_sequence: pipe_sequence PIPE simple_command •</text>
</g>
<!-- 26&#45;&gt;30 -->
<g id="edge88" class="edge">
<title>26-&gt;30</title>
<path fill="none" stroke="#000000" stroke-dasharray="5,2" d="M1145.4538,-725.9425C1133.1035,-720.2426 1120.4508,-714.0714 1108.8042,-707.8 1078.2714,-691.3588 1045.499,-670.6533 1019.4043,-653.3726"/>
<polygon fill="#000000" stroke="#000000" points="1021.0862,-650.2875 1010.8237,-647.6546 1017.2044,-656.1126 1021.0862,-650.2875"/>
<text text-anchor="middle" x="1168.1748" y="-695.2" font-family="Courier,monospace" font-size="14.00" fill="#000000">simple_command</text>
</g>
<!-- 27R16 -->
<g id="node52" class="node">
<title>27R16</title>
<polygon fill="#b2df8a" stroke="#000000" points="2616.3846,-119.8 2576.0108,-101.8 2616.3846,-83.8 2656.7584,-101.8 2616.3846,-119.8"/>
<text text-anchor="middle" x="2616.3846" y="-97.6" font-family="Courier,monospace" font-size="14.00" fill="#000000">R16</text>
</g>
<!-- 27&#45;&gt;27R16 -->
<g id="edge89" class="edge">
<title>27-&gt;27R16</title>
<path fill="none" stroke="#000000" d="M2616.3846,-183.4819C2616.3846,-167.0256 2616.3846,-146.454 2616.3846,-130.0728"/>
<polygon fill="#000000" stroke="#000000" points="2619.8847,-129.9984 2616.3846,-119.9984 2612.8847,-129.9984 2619.8847,-129.9984"/>
</g>
<!-- 28R14 -->
<g id="node53" class="node">
<title>28R14</title>
<polygon fill="#b2df8a" stroke="#000000" points="2973.3846,-119.8 2933.0108,-101.8 2973.3846,-83.8 3013.7584,-101.8 2973.3846,-119.8"/>
<text text-anchor="middle" x="2973.3846" y="-97.6" font-family="Courier,monospace" font-size="14.00" fill="#000000">R14</text>
</g>
<!-- 28&#45;&gt;28R14 -->
<g id="edge90" class="edge">
<title>28-&gt;28R14</title>
<path fill="none" stroke="#000000" d="M2973.3846,-183.4819C2973.3846,-167.0256 2973.3846,-146.454 2973.3846,-130.0728"/>
<polygon fill="#000000" stroke="#000000" points="2976.8847,-129.9984 2973.3846,-119.9984 2969.8847,-129.9984 2976.8847,-129.9984"/>
</g>
<!-- 29&#45;&gt;2 -->
<g id="edge92" class="edge">
<title>29-&gt;2</title>
<path fill="none" stroke="#000000" d="M2354.749,-299.6983C2337.0614,-297.4479 2319.4595,-295.4395 2302.3846,-293.8 2067.3332,-271.2303 2007.1425,-289.2186 1771.3916,-275.8 1577.7509,-264.7782 1529.5895,-258.0318 1336.3846,-241 1287.4008,-236.6819 1233.9368,-231.6375 1185.9384,-226.9877"/>
<polygon fill="#000000" stroke="#000000" points="1186.0741,-223.4845 1175.7827,-226.0019 1185.3977,-230.4518 1186.0741,-223.4845"/>
<text text-anchor="middle" x="1793.3811" y="-263.2" font-family="Courier,monospace" font-size="14.00" fill="#000000">SLESS</text>
</g>
<!-- 29&#45;&gt;3 -->
<g id="edge93" class="edge">
<title>29-&gt;3</title>
<path fill="none" stroke="#000000" d="M2354.5713,-301.2279C2336.9248,-298.6239 2319.3808,-296.1176 2302.3846,-293.8 2108.541,-267.3678 1884.36,-242.7808 1739.2288,-227.647"/>
<polygon fill="#000000" stroke="#000000" points="1739.2261,-224.1278 1728.9175,-226.5738 1738.5014,-231.0902 1739.2261,-224.1278"/>
<text text-anchor="middle" x="2171.5804" y="-263.2" font-family="Courier,monospace" font-size="14.00" fill="#000000">SGREAT</text>
</g>
<!-- 29&#45;&gt;4 -->
<g id="edge94" class="edge">
<title>29-&gt;4</title>
<path fill="none" stroke="#000000" d="M2824.0235,-294.7892C2826.8247,-294.4468 2829.6126,-294.1167 2832.3846,-293.8 3021.5443,-272.1871 3070.2682,-286.0101 3260.3846,-275.8 3374.689,-269.6613 3403.0562,-264.5312 3517.3916,-259 3771.8832,-246.6885 3836.8225,-265.9757 4090.3846,-241 4098.3553,-240.2149 4106.5145,-239.2871 4114.7394,-238.2541"/>
<polygon fill="#000000" stroke="#000000" points="4115.3319,-241.7066 4124.7962,-236.9445 4114.4279,-234.7652 4115.3319,-241.7066"/>
<text text-anchor="middle" x="3539.3811" y="-263.2" font-family="Courier,monospace" font-size="14.00" fill="#000000">DLESS</text>
</g>
<!-- 29&#45;&gt;5 -->
<g id="edge95" class="edge">
<title>29-&gt;5</title>
<path fill="none" stroke="#000000" d="M2401.9389,-293.6983C2387.5016,-288.2898 2373.3587,-282.3351 2359.993,-275.8 2348.7467,-270.3012 2348.4515,-264.8516 2337.3846,-259 2327.5473,-253.7985 2317.0123,-248.983 2306.3262,-244.5777"/>
<polygon fill="#000000" stroke="#000000" points="2307.4949,-241.2757 2296.9102,-240.8127 2304.8959,-247.7753 2307.4949,-241.2757"/>
<text text-anchor="middle" x="2385.5804" y="-263.2" font-family="Courier,monospace" font-size="14.00" fill="#000000">DGREAT</text>
</g>
<!-- 29&#45;&gt;7 -->
<g id="edge96" class="edge">
<title>29-&gt;7</title>
<path fill="none" stroke="#000000" stroke-dasharray="5,2" d="M2774.2128,-293.742C2787.4089,-288.3532 2800.272,-282.3889 2812.3846,-275.8 2822.348,-270.3802 2821.0615,-263.2073 2831.5944,-259 2874.2057,-241.9793 3184.9184,-246.5299 3264.4029,-240.7104"/>
<polygon fill="#000000" stroke="#000000" points="3265.124,-244.1578 3274.7482,-239.7279 3264.4621,-237.1892 3265.124,-244.1578"/>
<text text-anchor="middle" x="2861.7797" y="-263.2" font-family="Courier,monospace" font-size="14.00" fill="#000000">io_file</text>
</g>
<!-- 29&#45;&gt;8 -->
<g id="edge97" class="edge">
<title>29-&gt;8</title>
<path fill="none" stroke="#000000" stroke-dasharray="5,2" d="M2824.0397,-294.9212C2826.8358,-294.5371 2829.6183,-294.163 2832.3846,-293.8 2937.5626,-279.9967 2967.2359,-300.5644 3070.3846,-275.8 3089.2176,-271.2785 3091.6891,-263.2089 3110.5944,-259 3202.8191,-238.4682 3441.0471,-246.2323 3535.3846,-241 3630.3076,-235.7353 3737.2004,-228.3853 3819.393,-222.4283"/>
<polygon fill="#000000" stroke="#000000" points="3819.8259,-225.9062 3829.5459,-221.6905 3819.3185,-218.9246 3819.8259,-225.9062"/>
<text text-anchor="middle" x="3140.7797" y="-263.2" font-family="Courier,monospace" font-size="14.00" fill="#000000">io_here</text>
</g>
<!-- 29&#45;&gt;27 -->
<g id="edge91" class="edge">
<title>29-&gt;27</title>
<path fill="none" stroke="#000000" d="M2586.3871,-293.7991C2586.661,-282.2917 2587.8587,-270.0659 2590.7902,-259 2591.5713,-256.0515 2592.5751,-253.087 2593.7314,-250.1594"/>
<polygon fill="#000000" stroke="#000000" points="2596.9416,-251.5545 2597.8575,-240.9993 2590.5592,-248.6795 2596.9416,-251.5545"/>
<text text-anchor="middle" x="2608.1818" y="-263.2" font-family="Courier,monospace" font-size="14.00" fill="#000000">WORD</text>
</g>
<!-- 29&#45;&gt;28 -->
<g id="edge98" class="edge">
<title>29-&gt;28</title>
<path fill="none" stroke="#000000" stroke-dasharray="5,2" d="M2612.7832,-293.5559C2621.7257,-280.3713 2633.168,-267.321 2647,-259 2695.6561,-229.7299 2718.761,-247.3906 2779.0058,-241.012"/>
<polygon fill="#000000" stroke="#000000" points="2779.5106,-244.4763 2789.0032,-239.771 2778.6482,-237.5296 2779.5106,-244.4763"/>
<text text-anchor="middle" x="2693.5769" y="-263.2" font-family="Courier,monospace" font-size="14.00" fill="#000000">io_redirect</text>
</g>
<!-- 29R17 -->
<g id="node54" class="node">
<title>29R17</title>
<polygon fill="#b2df8a" stroke="#000000" points="2403.3846,-230.2 2363.0108,-212.2 2403.3846,-194.2 2443.7584,-212.2 2403.3846,-230.2"/>
<text text-anchor="middle" x="2403.3846" y="-208" font-family="Courier,monospace" font-size="14.00" fill="#000000">R17</text>
</g>
<!-- 29&#45;&gt;29R17 -->
<g id="edge99" class="edge">
<title>29-&gt;29R17</title>
<path fill="none" stroke="#000000" d="M2531.7255,-293.6421C2516.2954,-281.96 2499.4374,-269.69 2483.3846,-259 2470.1239,-250.1693 2466.1411,-249.0365 2452.3846,-241 2445.0759,-236.7303 2437.1635,-232.0883 2429.8726,-227.803"/>
<polygon fill="#000000" stroke="#000000" points="2431.456,-224.6738 2421.062,-222.6204 2427.9069,-230.7074 2431.456,-224.6738"/>
</g>
<!-- 30R23 -->
<g id="node55" class="node">
<title>30R23</title>
<polygon fill="#b2df8a" stroke="#000000" points="969.3846,-493 929.0108,-475 969.3846,-457 1009.7584,-475 969.3846,-493"/>
<text text-anchor="middle" x="969.3846" y="-470.8" font-family="Courier,monospace" font-size="14.00" fill="#000000">R23</text>
</g>
<!-- 30&#45;&gt;30R23 -->
<g id="edge100" class="edge">
<title>30-&gt;30R23</title>
<path fill="none" stroke="#000000" d="M969.3846,-590.2055C969.3846,-565.039 969.3846,-528.6969 969.3846,-503.5909"/>
<polygon fill="#000000" stroke="#000000" points="972.8847,-503.2559 969.3846,-493.256 965.8847,-503.256 972.8847,-503.2559"/>
</g>
</g>
</svg>